<?xml version="1.0" encoding="UTF-8" standalone="no"?>
<svg xmlns:xlink="http://www.w3.org/1999/xlink" height="69.95px" width="183.65px" xmlns="http://www.w3.org/2000/svg">
  <g transform="matrix(1.0, 0.0, 0.0, 1.0, 15.3, 5.9)">
    <use data-characterId="27" height="58.3" transform="matrix(1.2, 0.0, 0.0, 1.2, -15.3, -5.91)" width="153.05" xlink:href="#sprite0"/>
    <use data-characterId="30" height="34.4" transform="matrix(1.1333, 0.0, 0.0, 1.1333, 11.5567, 10.8633)" width="104.1" xlink:href="#sprite1"/>
    <use data-characterId="32" height="58.3" id="btn" transform="matrix(1.0, 0.0, 0.0, 1.0, 0.0, -0.05)" width="153.05" xlink:href="#button0"/>
  </g>
  <defs>
    <g id="sprite0" transform="matrix(1.0, 0.0, 0.0, 1.0, 0.0, 0.05)">
      <use data-characterId="26" height="58.3" transform="matrix(1.0, 0.0, 0.0, 1.0, 0.0, -0.05)" width="153.05" xlink:href="#shape0"/>
    </g>
    <g id="shape0" transform="matrix(1.0, 0.0, 0.0, 1.0, 0.0, 0.05)">
      <path d="M0.0 3.5 L153.05 -0.05 130.05 58.25 11.5 58.25 0.0 3.5" fill="#333333" fill-rule="evenodd" stroke="none"/>
      <path d="M127.95 55.1 L12.95 55.1 2.95 6.1 148.95 3.1 127.95 55.1" fill="url(#gradient0)" fill-rule="evenodd" stroke="none"/>
      <path d="M148.95 3.1 L142.7 9.35 7.95 11.1 2.95 6.1 148.95 3.1" fill="url(#gradient1)" fill-rule="evenodd" stroke="none"/>
      <path d="M7.95 11.1 L17.45 50.6 12.95 55.1 2.95 6.1 7.95 11.1" fill="url(#gradient2)" fill-rule="evenodd" stroke="none"/>
      <path d="M127.95 55.1 L12.95 55.1 17.45 50.6 123.45 50.6 127.95 55.1" fill="url(#gradient3)" fill-rule="evenodd" stroke="none"/>
      <path d="M148.95 3.1 L127.95 55.1 123.45 50.6 142.7 9.35 148.95 3.1" fill="url(#gradient4)" fill-rule="evenodd" stroke="none"/>
      <path d="M131.45 13.55 L119.4 46.35 21.5 47.5 15.5 15.85 131.45 13.55" fill="#ff0000" fill-opacity="0.3019608" fill-rule="evenodd" stroke="none"/>
    </g>
    <linearGradient gradientTransform="matrix(0.0, 0.0317, -0.0317, 0.0, 75.95, 29.1)" gradientUnits="userSpaceOnUse" id="gradient0" spreadMethod="pad" x1="-819.2" x2="819.2">
      <stop offset="0.0" stop-color="#a2a723"/>
      <stop offset="0.0" stop-color="#ff6f00"/>
      <stop offset="1.0" stop-color="#ffe17c"/>
    </linearGradient>
    <linearGradient gradientTransform="matrix(0.0, -0.0049, 0.0049, 0.0, 75.95, 7.1)" gradientUnits="userSpaceOnUse" id="gradient1" spreadMethod="pad" x1="-819.2" x2="819.2">
      <stop offset="0.0" stop-color="#a2a723"/>
      <stop offset="0.0" stop-color="#ff6f00"/>
      <stop offset="1.0" stop-color="#ffe17c"/>
    </linearGradient>
    <linearGradient gradientTransform="matrix(0.0, -0.0299, 0.0299, 0.0, 10.2, 30.6)" gradientUnits="userSpaceOnUse" id="gradient2" spreadMethod="pad" x1="-819.2" x2="819.2">
      <stop offset="0.0" stop-color="#a2a723"/>
      <stop offset="0.0" stop-color="#ff6f00"/>
      <stop offset="1.0" stop-color="#ffe17c"/>
    </linearGradient>
    <linearGradient gradientTransform="matrix(0.0, -0.0027, 0.0027, 0.0, 70.45, 52.85)" gradientUnits="userSpaceOnUse" id="gradient3" spreadMethod="pad" x1="-819.2" x2="819.2">
      <stop offset="0.0" stop-color="#a2a723"/>
      <stop offset="0.0" stop-color="#ff6f00"/>
      <stop offset="1.0" stop-color="#ffe17c"/>
    </linearGradient>
    <linearGradient gradientTransform="matrix(0.0, -0.0317, 0.0317, 0.0, 136.2, 29.1)" gradientUnits="userSpaceOnUse" id="gradient4" spreadMethod="pad" x1="-819.2" x2="819.2">
      <stop offset="0.0" stop-color="#a2a723"/>
      <stop offset="0.0" stop-color="#ff6f00"/>
      <stop offset="1.0" stop-color="#ffe17c"/>
    </linearGradient>
    <g id="sprite1" transform="matrix(1.0, 0.0, 0.0, 1.0, -3.8, -0.1)">
      <use data-characterId="29" height="34.4" transform="matrix(1.0, 0.0, 0.0, 1.0, 3.8, 0.1)" width="104.1" xlink:href="#text0"/>
    </g>
    <g id="text0" transform="matrix(1.0, 0.0, 0.0, 1.0, 12.2, 1.9)">
      <g transform="matrix(1.0, 0.0, 0.0, 1.0, -12.75, 0.0)">
        <use fill="#aeff5e" height="34.4" transform="matrix(0.0137, 0.0, 0.0, 0.0137, 10.0, 12.0)" width="104.1" xlink:href="#font_____________0"/>
        <use fill="#aeff5e" height="34.4" transform="matrix(0.0137, 0.0, 0.0, 0.0137, 24.4, 12.0)" width="104.1" xlink:href="#font_____________1"/>
        <use fill="#aeff5e" height="34.4" transform="matrix(0.0137, 0.0, 0.0, 0.0137, 38.8, 12.0)" width="104.1" xlink:href="#font_____________2"/>
        <use fill="#aeff5e" height="34.4" transform="matrix(0.0137, 0.0, 0.0, 0.0137, 53.2, 12.0)" width="104.1" xlink:href="#font_____________3"/>
        <use fill="#aeff5e" height="34.4" transform="matrix(0.0137, 0.0, 0.0, 0.0137, 67.6, 12.0)" width="104.1" xlink:href="#font_____________4"/>
        <use fill="#aeff5e" height="34.4" transform="matrix(0.0137, 0.0, 0.0, 0.0137, 82.0, 12.0)" width="104.1" xlink:href="#font_____________5"/>
      </g>
      <g transform="matrix(1.0, 0.0, 0.0, 1.0, -12.75, 0.0)">
        <use fill="#aeff5e" height="34.4" transform="matrix(0.0137, 0.0, 0.0, 0.0137, 0.0, 30.0)" width="104.1" xlink:href="#font_____________6"/>
        <use fill="#aeff5e" height="34.4" transform="matrix(0.0137, 0.0, 0.0, 0.0137, 14.4, 30.0)" width="104.1" xlink:href="#font_____________7"/>
        <use fill="#aeff5e" height="34.4" transform="matrix(0.0137, 0.0, 0.0, 0.0137, 28.8, 30.0)" width="104.1" xlink:href="#font_____________8"/>
        <use fill="#aeff5e" height="34.4" transform="matrix(0.0137, 0.0, 0.0, 0.0137, 43.2, 30.0)" width="104.1" xlink:href="#font_____________9"/>
        <use fill="#aeff5e" height="34.4" transform="matrix(0.0137, 0.0, 0.0, 0.0137, 57.6, 30.0)" width="104.1" xlink:href="#font_____________10"/>
        <use fill="#aeff5e" height="34.4" transform="matrix(0.0137, 0.0, 0.0, 0.0137, 72.0, 30.0)" width="104.1" xlink:href="#font_____________2"/>
        <use fill="#aeff5e" height="34.4" transform="matrix(0.0137, 0.0, 0.0, 0.0137, 86.4, 30.0)" width="104.1" xlink:href="#font_____________11"/>
      </g>
      <g transform="matrix(1.0, 0.0, 0.0, 1.0, -12.75, 0.0)">
        <use fill="#aeff5e" height="34.4" transform="matrix(0.0137, 0.0, 0.0, 0.0137, 100.8, 30.0)" width="104.1" xlink:href="#font_____________12"/>
      </g>
    </g>
    <g id="font_____________0">
      <path d="M915.5 -590.0 L915.5 -590.0 Q915.5 -713.5 740.5 -713.5 L144.5 -697.5 Q110.5 -696.5 92.0 -675.0 72.5 -654.5 72.5 -624.5 71.5 -595.0 92.0 -574.5 112.5 -555.0 150.5 -556.0 656.5 -572.5 718.0 -572.5 749.5 -572.5 749.5 -552.0 749.5 -537.5 736.5 -519.0 666.5 -409.5 495.5 -267.0 407.5 -357.5 348.0 -408.5 325.5 -428.0 301.0 -429.0 269.5 -429.0 246.0 -405.5 222.0 -381.0 224.5 -350.0 225.5 -320.5 250.0 -298.0 315.5 -239.5 418.0 -135.0 520.0 -29.5 566.5 24.5 588.0 52.5 619.5 53.5 649.0 55.5 674.0 32.0 699.5 8.0 699.5 -22.5 698.5 -47.0 680.0 -68.5 653.5 -104.5 600.0 -159.5 722.0 -263.0 802.0 -360.5 915.5 -495.5 915.5 -590.0" fill-rule="evenodd" stroke="none"/>
    </g>
    <g id="font_____________1">
      <path d="M943.0 -178.0 L943.0 -178.0 Q943.0 -213.0 910.5 -235.5 L705.5 -379.0 Q864.5 -491.5 864.5 -567.5 864.5 -633.0 812.0 -662.5 775.0 -683.0 727.0 -683.0 L590.0 -683.0 590.0 -738.5 Q590.0 -773.0 564.5 -794.5 545.0 -813.0 514.0 -812.0 484.5 -812.0 463.0 -792.5 441.5 -773.0 441.5 -738.5 L441.5 -683.0 196.5 -683.0 Q164.0 -683.0 144.5 -663.5 125.0 -644.0 123.0 -617.5 121.0 -587.5 140.5 -564.0 161.0 -541.5 196.5 -541.5 L632.0 -541.5 Q657.5 -541.5 657.5 -536.5 657.5 -533.5 647.0 -525.5 403.5 -344.0 132.0 -250.0 81.0 -233.5 81.0 -184.5 81.0 -153.5 101.5 -129.0 122.0 -105.5 153.5 -105.5 166.0 -105.5 180.5 -109.5 272.5 -141.5 439.5 -224.0 L439.5 -7.0 Q439.5 29.5 462.0 48.0 484.5 67.5 515.0 67.5 545.0 67.5 566.5 47.0 588.0 28.5 588.0 -7.0 L588.0 -280.5 823.5 -115.5 Q845.0 -100.5 869.5 -100.5 899.0 -100.5 920.5 -125.0 943.0 -148.5 943.0 -178.0" fill-rule="evenodd" stroke="none"/>
    </g>
    <g id="font_____________2">
      <path d="M982.0 -372.5 L982.0 -372.5 Q982.0 -402.5 963.5 -425.0 942.0 -449.5 908.5 -449.5 L115.5 -449.5 Q80.0 -449.5 60.5 -425.0 41.0 -399.5 41.0 -368.5 41.0 -340.0 59.5 -317.5 81.0 -291.0 115.5 -291.0 L908.5 -291.0 Q943.0 -291.0 963.5 -318.5 982.0 -341.0 982.0 -372.5" fill-rule="evenodd" stroke="none"/>
    </g>
    <g id="font_____________3">
      <path d="M313.5 -325.5 L313.5 -325.5 Q318.5 -341.0 318.5 -353.0 318.5 -385.0 295.0 -405.5 271.5 -426.0 240.5 -426.0 190.5 -426.0 173.0 -375.0 130.0 -253.0 69.5 -148.5 58.5 -128.0 58.5 -108.5 58.5 -78.0 82.0 -56.5 105.5 -35.0 136.0 -35.0 176.0 -35.0 197.5 -72.5 265.0 -190.5 313.5 -325.5 M944.0 -575.5 L944.0 -575.5 Q945.0 -603.0 927.0 -622.5 905.0 -645.0 870.5 -645.0 L608.5 -645.0 608.5 -728.0 Q608.5 -763.0 582.5 -784.5 562.0 -803.0 531.5 -802.0 503.0 -802.0 481.5 -782.5 460.0 -763.0 460.0 -728.0 L460.0 -645.0 156.5 -645.0 Q122.0 -645.0 102.5 -624.5 83.0 -605.0 83.0 -576.5 82.0 -547.0 100.5 -527.5 122.0 -505.0 156.5 -505.0 L460.0 -505.0 460.0 -156.5 Q460.0 -121.0 439.5 -121.0 430.0 -121.0 404.5 -127.0 378.0 -133.0 367.5 -133.0 337.0 -133.0 318.5 -113.5 299.0 -94.0 299.0 -63.5 299.0 0.0 356.5 13.5 433.0 31.0 470.0 31.0 608.5 31.0 608.5 -136.0 L608.5 -505.0 870.5 -505.0 Q905.0 -505.0 924.5 -525.5 944.0 -547.0 944.0 -575.5 M941.0 -156.5 L941.0 -156.5 Q882.5 -288.5 846.0 -375.0 826.5 -418.0 781.5 -418.0 750.5 -419.0 726.0 -398.5 701.5 -377.0 701.5 -346.0 701.5 -330.5 710.5 -312.5 772.0 -173.0 805.0 -95.0 826.5 -48.0 875.5 -51.0 904.0 -52.0 925.5 -72.5 948.5 -94.0 948.5 -123.0 948.5 -139.0 941.0 -156.5 M872.5 -717.0 L872.5 -717.0 Q872.5 -738.5 866.5 -754.5 847.0 -796.5 815.0 -835.5 796.5 -856.0 775.0 -856.0 730.0 -856.0 730.0 -819.0 730.0 -800.5 747.5 -773.0 780.5 -724.0 793.5 -702.5 807.0 -681.0 832.5 -681.0 847.0 -681.0 860.0 -691.0 872.5 -702.5 872.5 -717.0 M1011.5 -731.0 L1011.5 -731.0 Q1011.5 -752.5 1004.5 -770.0 985.0 -812.0 953.5 -851.0 936.0 -871.5 914.5 -871.5 868.5 -871.5 868.5 -834.5 868.5 -816.0 886.0 -789.5 918.5 -739.5 932.0 -718.0 945.0 -696.5 971.0 -696.5 1011.5 -696.5 1011.5 -731.0" fill-rule="evenodd" stroke="none"/>
    </g>
    <g id="font_____________4">
      <path d="M348.0 -304.0 L348.0 -304.0 Q337.0 -351.0 322.5 -396.5 316.5 -409.5 285.5 -490.5 269.5 -533.5 226.5 -533.5 198.5 -533.5 177.0 -515.0 154.5 -495.5 154.5 -468.0 154.5 -455.5 161.0 -441.5 206.0 -322.5 217.0 -274.5 229.5 -219.0 283.5 -222.0 311.5 -223.0 331.0 -240.5 350.0 -258.0 350.0 -287.5 350.0 -296.0 348.0 -304.0 M864.5 -431.0 L864.5 -431.0 Q866.5 -439.5 866.5 -446.5 866.5 -475.0 845.0 -493.5 824.5 -511.0 796.5 -511.0 741.5 -511.0 732.0 -455.5 700.5 -271.5 610.5 -170.0 539.5 -93.0 389.0 -24.5 349.0 -7.0 349.0 35.0 349.0 61.5 368.5 83.0 387.0 104.5 415.0 104.5 430.0 104.5 444.5 98.5 623.5 17.5 711.5 -84.0 826.5 -213.0 864.5 -431.0 M579.5 -347.0 L579.5 -347.0 Q576.5 -389.0 562.0 -439.5 555.0 -470.0 535.5 -530.5 519.0 -577.5 472.0 -577.5 443.5 -577.5 423.0 -559.0 402.5 -542.5 402.5 -514.0 402.5 -503.0 407.5 -490.5 436.5 -391.0 445.5 -331.5 453.5 -271.5 513.0 -272.5 540.5 -272.5 561.0 -293.0 581.5 -313.5 579.5 -347.0" fill-rule="evenodd" stroke="none"/>
    </g>
    <g id="font_____________5">
      <path d="M862.0 -355.5 L862.0 -355.5 Q862.0 -406.5 811.0 -424.0 L448.5 -533.5 448.5 -719.0 Q448.5 -751.5 427.0 -772.0 406.5 -791.5 377.0 -792.5 345.0 -794.5 323.5 -776.0 300.0 -754.5 300.0 -719.0 L300.0 -18.5 Q300.0 16.5 320.5 36.0 340.0 55.5 369.5 56.5 400.5 58.5 425.0 38.0 448.5 18.5 448.5 -18.5 L448.5 -377.0 766.0 -280.5 Q781.5 -277.5 795.5 -277.5 826.5 -278.5 845.0 -302.0 864.5 -325.5 862.0 -355.5" fill-rule="evenodd" stroke="none"/>
    </g>
    <g id="font_____________6">
      <path d="M120.0 -701.5 L120.0 -701.5 Q82.0 -701.5 64.5 -685.0 47.0 -670.5 47.0 -628.5 47.0 -589.0 64.5 -573.5 84.0 -557.0 120.0 -557.0 L273.5 -557.0 Q246.0 -455.5 190.5 -340.0 140.5 -241.5 47.0 -133.0 32.0 -116.5 32.0 -85.0 32.0 -60.5 55.5 -40.0 85.0 -17.5 111.5 -17.5 154.5 -17.5 179.0 -45.0 265.0 -144.5 339.0 -306.0 402.5 -451.5 427.0 -557.0 L435.0 -557.0 435.0 -200.5 347.0 -200.5 Q312.5 -200.5 299.0 -188.5 279.5 -173.0 279.5 -133.0 279.5 -92.0 299.0 -78.0 316.5 -61.5 347.0 -61.5 L435.0 -61.5 435.0 31.0 Q435.0 62.5 453.5 84.0 475.0 110.5 516.0 110.5 560.0 110.5 580.5 83.0 596.0 62.5 596.0 31.0 L596.0 -61.5 676.0 -61.5 Q716.0 -61.5 733.0 -83.0 743.5 -97.0 743.5 -133.0 743.5 -175.0 726.0 -186.5 709.5 -200.5 676.0 -200.5 L596.0 -200.5 596.0 -557.0 607.5 -557.0 Q610.5 -535.5 613.5 -515.0 648.0 -384.0 694.5 -286.5 761.0 -136.0 860.0 -41.0 882.5 -20.5 915.5 -20.5 958.5 -20.5 980.0 -48.0 999.5 -66.5 999.5 -89.0 999.5 -122.0 976.0 -141.5 879.5 -243.5 835.5 -326.5 791.5 -409.5 744.5 -557.0 L904.0 -557.0 Q943.0 -557.0 962.5 -579.5 976.0 -596.0 976.0 -628.5 976.0 -670.5 960.5 -685.0 943.0 -701.5 904.0 -701.5 L596.0 -701.5 596.0 -765.0 Q596.0 -803.0 573.5 -823.5 552.0 -845.0 516.0 -845.0 477.0 -845.0 459.0 -823.5 435.0 -803.0 435.0 -765.0 L435.0 -701.5 120.0 -701.5" fill-rule="evenodd" stroke="none"/>
    </g>
    <g id="font_____________7">
      <path d="M724.0 -649.0 L724.0 -649.0 808.0 -649.0 Q816.0 -649.0 816.0 -637.0 816.0 -555.0 771.0 -464.0 764.0 -450.5 764.0 -433.0 764.0 -413.5 773.0 -391.0 816.0 -310.0 816.0 -244.5 816.0 -202.5 808.0 -185.5 795.5 -156.5 764.0 -156.5 746.5 -156.5 724.0 -159.5 L724.0 -649.0 M651.5 -793.5 L651.5 -793.5 Q592.0 -793.5 592.0 -721.0 L592.0 51.0 Q595.0 104.5 659.5 107.5 721.0 104.5 724.0 51.0 L724.0 -24.5 Q765.0 -13.5 812.0 -13.5 883.5 -13.5 918.5 -64.5 951.5 -105.5 951.5 -196.5 951.5 -312.5 900.0 -441.5 951.5 -606.0 951.5 -708.5 951.5 -793.5 875.5 -793.5 L651.5 -793.5 M239.5 -68.5 L239.5 -68.5 Q223.5 -68.5 223.5 -85.0 L223.5 -156.5 Q223.5 -173.0 239.5 -173.0 L380.0 -173.0 Q395.5 -173.0 395.5 -156.5 L395.5 -85.0 Q395.5 -68.5 380.0 -68.5 L239.5 -68.5 M172.0 -301.0 L172.0 -301.0 Q91.0 -301.0 91.0 -221.0 L91.0 -17.5 Q91.0 63.5 172.0 63.5 L451.5 63.5 Q531.5 63.5 531.5 -17.5 L531.5 -221.0 Q531.5 -301.0 451.5 -301.0 L172.0 -301.0 M290.0 -473.0 L290.0 -473.0 Q287.0 -493.5 273.5 -522.0 245.0 -584.5 223.5 -605.0 222.0 -607.0 220.0 -609.0 L386.0 -609.0 Q376.0 -598.0 371.5 -577.5 362.5 -523.0 344.0 -473.0 L290.0 -473.0 M311.5 -829.5 L311.5 -829.5 Q273.5 -829.5 257.0 -814.0 235.5 -789.5 235.5 -761.0 L235.5 -741.5 115.5 -741.5 Q83.0 -741.5 69.5 -729.0 51.0 -714.5 51.0 -677.0 51.0 -639.0 69.5 -624.5 87.0 -609.0 115.5 -609.0 L127.0 -609.0 Q118.0 -602.0 112.5 -593.0 107.5 -578.5 107.5 -569.5 107.5 -562.0 109.5 -557.0 137.0 -510.0 156.5 -473.0 L103.5 -473.0 Q72.5 -473.0 60.5 -461.0 43.0 -447.5 43.0 -408.5 43.0 -372.5 60.5 -359.5 77.0 -345.0 103.5 -345.0 L516.0 -345.0 Q551.0 -345.0 566.5 -364.5 575.5 -377.0 575.5 -408.5 575.5 -448.5 560.0 -459.5 546.0 -473.0 516.0 -473.0 L473.0 -473.0 Q486.5 -513.0 493.5 -552.0 495.5 -559.0 495.5 -565.0 495.5 -595.0 475.0 -609.0 L495.5 -609.0 Q533.5 -609.0 550.0 -629.5 560.0 -643.0 560.0 -677.0 560.0 -717.0 543.0 -728.0 527.5 -741.5 495.5 -741.5 L391.0 -741.5 391.0 -761.0 Q391.0 -794.5 368.5 -813.0 351.5 -829.5 311.5 -829.5" fill-rule="evenodd" stroke="none"/>
    </g>
    <g id="font_____________8">
      <path d="M939.0 -406.5 L939.0 -406.5 Q937.0 -436.0 919.5 -455.5 902.0 -475.0 872.5 -475.0 859.0 -475.0 844.0 -471.0 775.0 -448.5 652.5 -396.5 595.0 -515.0 462.0 -515.0 472.0 -515.0 391.0 -504.0 420.0 -544.5 441.5 -577.5 625.5 -589.0 732.0 -598.0 802.0 -603.0 799.0 -663.5 797.5 -692.0 779.5 -711.5 755.5 -731.0 721.0 -729.0 653.5 -723.0 516.0 -714.5 L517.0 -720.0 Q521.0 -734.0 521.0 -747.5 521.0 -777.0 499.5 -795.5 478.0 -816.0 450.5 -816.0 399.5 -816.0 384.0 -763.0 377.0 -741.5 356.5 -706.5 229.5 -700.5 173.0 -700.5 139.5 -700.5 119.0 -680.0 98.5 -659.5 98.5 -632.0 97.5 -603.0 118.0 -584.5 137.0 -566.0 173.0 -566.0 208.0 -566.0 271.5 -568.5 180.5 -435.0 111.5 -370.5 82.0 -342.0 82.0 -308.0 82.0 -280.5 100.5 -261.0 119.0 -242.5 146.5 -242.5 173.0 -242.5 198.5 -260.0 256.0 -307.0 311.5 -353.0 364.5 -392.0 436.5 -392.0 487.5 -392.0 517.0 -335.0 250.0 -207.0 250.0 -114.5 250.0 64.5 523.5 64.5 652.5 64.5 802.0 53.5 834.5 52.5 852.0 31.0 868.5 12.5 867.5 -14.5 866.5 -44.0 843.0 -65.5 820.5 -86.0 784.5 -84.0 644.0 -69.5 523.5 -69.5 398.5 -69.5 398.5 -99.5 398.5 -137.0 513.0 -186.5 L540.5 -199.5 541.5 -191.5 Q541.5 -156.5 564.5 -137.0 587.0 -116.5 615.5 -116.5 646.0 -116.5 668.5 -137.0 690.0 -156.5 690.0 -191.5 690.0 -227.5 687.0 -260.0 811.0 -311.5 888.0 -339.0 941.0 -356.5 939.0 -406.5" fill-rule="evenodd" stroke="none"/>
    </g>
    <g id="font_____________9">
      <path d="M919.5 -44.0 L919.5 -44.0 Q918.5 -65.5 905.0 -86.0 840.5 -182.0 676.0 -334.0 826.5 -490.5 826.5 -601.0 826.5 -728.0 673.0 -728.0 L187.5 -728.0 Q152.5 -728.0 133.0 -706.5 113.5 -685.0 113.5 -654.5 112.5 -623.5 132.0 -601.0 151.5 -579.5 187.5 -579.5 L638.0 -579.5 Q663.5 -579.5 663.5 -569.5 663.5 -563.0 657.5 -550.0 603.0 -450.5 408.5 -298.0 264.0 -184.5 135.0 -107.5 98.5 -85.0 97.5 -46.0 97.5 -16.5 119.0 7.0 140.5 32.0 171.0 32.0 190.5 33.0 211.0 20.5 405.5 -95.0 566.5 -233.5 723.0 -89.0 782.5 -3.0 806.0 33.0 846.0 31.0 873.5 28.5 897.0 7.0 919.5 -14.5 919.5 -44.0" fill-rule="evenodd" stroke="none"/>
    </g>
    <g id="font_____________10">
      <path d="M887.0 -550.0 L887.0 -550.0 Q887.0 -677.0 753.5 -677.0 L510.0 -677.0 Q523.5 -705.5 523.5 -723.0 521.0 -752.5 497.5 -773.0 474.0 -793.5 443.5 -793.5 397.5 -792.5 378.0 -745.5 350.0 -675.0 279.5 -590.0 209.0 -506.0 130.0 -452.5 97.5 -430.0 97.5 -395.0 96.5 -363.5 120.0 -340.0 142.5 -314.5 173.0 -316.5 194.5 -317.5 215.0 -330.5 333.0 -409.5 425.0 -535.5 L694.5 -535.5 Q732.0 -535.5 724.0 -536.5 738.5 -534.5 738.5 -522.0 738.5 -515.0 733.0 -503.0 699.5 -379.0 560.0 -258.0 409.5 -128.0 229.5 -84.0 173.0 -69.5 173.0 -14.5 173.0 16.5 193.5 40.0 212.0 63.5 246.0 63.5 256.0 63.5 265.0 60.5 506.0 1.0 691.0 -175.0 887.0 -360.5 887.0 -550.0" fill-rule="evenodd" stroke="none"/>
    </g>
    <g id="font_____________11">
      <path d="M952.5 -767.0 L952.5 -767.0 Q952.5 -747.5 938.0 -733.0 923.5 -720.0 905.0 -720.0 886.0 -720.0 871.5 -732.0 858.0 -745.5 858.0 -766.0 858.0 -811.0 905.0 -811.0 925.5 -811.0 939.0 -798.5 952.5 -786.5 952.5 -767.0 M921.5 -574.5 L921.5 -574.5 Q921.5 -624.5 903.0 -655.5 L905.0 -655.5 Q950.5 -654.5 985.0 -687.0 1020.0 -720.0 1020.0 -767.0 1020.0 -815.0 987.0 -845.0 954.5 -875.5 905.0 -875.5 855.0 -875.5 822.5 -845.0 790.5 -814.0 790.5 -765.0 790.5 -731.0 807.0 -706.5 794.5 -708.5 781.5 -708.5 L168.0 -708.5 Q132.0 -708.5 111.5 -684.0 93.0 -663.5 94.0 -633.0 94.0 -602.0 113.5 -580.5 133.0 -559.0 168.0 -559.0 L733.0 -559.0 Q770.0 -559.0 770.0 -536.5 770.0 -530.5 766.0 -517.0 736.5 -393.0 583.5 -270.5 444.5 -158.5 269.5 -98.5 220.0 -83.0 219.0 -31.5 218.0 -2.0 238.5 21.5 258.0 46.0 290.0 46.0 303.0 46.0 317.5 42.0 540.5 -34.0 711.5 -185.5 921.5 -371.5 921.5 -574.5" fill-rule="evenodd" stroke="none"/>
    </g>
    <g id="font_____________12">
      <path d="M273.5 -104.5 L273.5 -104.5 Q273.5 -149.5 238.5 -179.0 203.0 -209.0 156.5 -209.0 110.5 -209.0 76.0 -179.0 41.0 -149.5 41.0 -104.5 41.0 -59.5 76.0 -30.5 110.5 -1.0 156.5 -1.0 203.0 -1.0 237.5 -30.5 273.5 -60.5 273.5 -104.5 M255.0 -708.5 L255.0 -708.5 Q259.0 -762.0 232.5 -791.5 205.0 -821.0 157.5 -821.0 50.0 -821.0 59.5 -707.5 L90.0 -315.5 Q94.0 -262.0 152.5 -262.0 218.0 -262.0 222.0 -315.5 L255.0 -708.5" fill-rule="evenodd" stroke="none"/>
    </g>
    <g id="button0" transform="matrix(1.0, 0.0, 0.0, 1.0, 0.0, 0.0)">
      <use data-characterId="31" height="58.3" transform="matrix(1.0, 0.0, 0.0, 1.0, 0.0, 0.0)" width="153.05" xlink:href="#shape1"/>
    </g>
    <g id="shape1" transform="matrix(1.0, 0.0, 0.0, 1.0, 0.0, 0.0)">
      <path d="M130.05 58.3 L11.5 58.3 0.0 3.55 153.05 0.0 130.05 58.3" fill="#00ffff" fill-opacity="0.0" fill-rule="evenodd" stroke="none"/>
    </g>
  </defs>
</svg>
