<?xml version="1.0" encoding="UTF-8" standalone="no"?>
<svg xmlns:xlink="http://www.w3.org/1999/xlink" height="72.0px" width="208.8px" xmlns="http://www.w3.org/2000/svg">
  <g transform="matrix(1.0, 0.0, 0.0, 1.0, 17.4, 5.9)">
    <use data-characterId="36" height="60.0" transform="matrix(1.1, 0.0, 0.0, 1.1, -8.7, -2.89)" width="174.0" xlink:href="#sprite0"/>
    <use data-characterId="38" height="34.45" transform="matrix(1.0667, 0.0, 0.0, 1.0667, 25.51, 10.9033)" width="117.7" xlink:href="#sprite1"/>
    <use data-characterId="40" height="60.0" id="btn" transform="matrix(1.0, 0.0, 0.0, 1.0, 0.0, 0.1)" width="174.0" xlink:href="#button0"/>
  </g>
  <defs>
    <g id="sprite0" transform="matrix(1.0, 0.0, 0.0, 1.0, 0.0, -0.1)">
      <use data-characterId="35" height="60.0" transform="matrix(1.0, 0.0, 0.0, 1.0, 0.0, 0.1)" width="174.0" xlink:href="#shape0"/>
    </g>
    <g id="shape0" transform="matrix(1.0, 0.0, 0.0, 1.0, 0.0, -0.1)">
      <path d="M15.95 3.1 L158.95 3.1 170.95 53.1 2.95 57.1 15.95 3.1" fill="#005149" fill-rule="evenodd" stroke="none"/>
      <path d="M174.0 56.1 L0.0 60.1 16.0 3.1 162.0 0.1 174.0 56.1" fill="#333333" fill-rule="evenodd" stroke="none"/>
      <path d="M18.95 6.1 L158.95 3.1 170.95 53.1 3.95 56.1 18.95 6.1" fill="url(#gradient0)" fill-rule="evenodd" stroke="none"/>
      <path d="M158.95 3.1 L154.95 7.1 22.95 10.1 18.95 6.1 158.95 3.1" fill="url(#gradient1)" fill-rule="evenodd" stroke="none"/>
      <path d="M154.95 7.1 L158.95 3.1 170.95 53.1 165.45 47.6 154.95 7.1" fill="url(#gradient2)" fill-rule="evenodd" stroke="none"/>
      <path d="M3.95 56.1 L12.45 47.6 165.45 47.6 170.95 53.1 3.95 56.1" fill="url(#gradient3)" fill-rule="evenodd" stroke="none"/>
      <path d="M18.95 6.1 L22.95 10.1 12.45 47.6 3.95 56.1 18.95 6.1" fill="url(#gradient4)" fill-rule="evenodd" stroke="none"/>
      <path d="M157.5 41.5 L20.5 43.5 26.5 13.5 150.5 11.5 157.5 41.5" fill="#ff0000" fill-opacity="0.3019608" fill-rule="evenodd" stroke="none"/>
    </g>
    <linearGradient gradientTransform="matrix(0.0, 0.0323, -0.0323, 0.0, 87.45, 29.6)" gradientUnits="userSpaceOnUse" id="gradient0" spreadMethod="pad" x1="-819.2" x2="819.2">
      <stop offset="0.0" stop-color="#a2a723"/>
      <stop offset="0.0" stop-color="#ff6f00"/>
      <stop offset="1.0" stop-color="#ffe17c"/>
    </linearGradient>
    <linearGradient gradientTransform="matrix(0.0, -0.0043, 0.0043, 0.0, 88.95, 6.6)" gradientUnits="userSpaceOnUse" id="gradient1" spreadMethod="pad" x1="-819.2" x2="819.2">
      <stop offset="0.0" stop-color="#a2a723"/>
      <stop offset="0.0" stop-color="#ff6f00"/>
      <stop offset="1.0" stop-color="#ffe17c"/>
    </linearGradient>
    <linearGradient gradientTransform="matrix(0.0, -0.0305, 0.0305, 0.0, 162.95, 28.1)" gradientUnits="userSpaceOnUse" id="gradient2" spreadMethod="pad" x1="-819.2" x2="819.2">
      <stop offset="0.0" stop-color="#a2a723"/>
      <stop offset="0.0" stop-color="#ff6f00"/>
      <stop offset="1.0" stop-color="#ffe17c"/>
    </linearGradient>
    <linearGradient gradientTransform="matrix(0.0, -0.0052, 0.0052, 0.0, 87.45, 51.85)" gradientUnits="userSpaceOnUse" id="gradient3" spreadMethod="pad" x1="-819.2" x2="819.2">
      <stop offset="0.0" stop-color="#a2a723"/>
      <stop offset="0.0" stop-color="#ff6f00"/>
      <stop offset="1.0" stop-color="#ffe17c"/>
    </linearGradient>
    <linearGradient gradientTransform="matrix(0.0, -0.0305, 0.0305, 0.0, 13.45, 31.1)" gradientUnits="userSpaceOnUse" id="gradient4" spreadMethod="pad" x1="-819.2" x2="819.2">
      <stop offset="0.0" stop-color="#a2a723"/>
      <stop offset="0.0" stop-color="#ff6f00"/>
      <stop offset="1.0" stop-color="#ffe17c"/>
    </linearGradient>
    <g id="sprite1" transform="matrix(1.0, 0.0, 0.0, 1.0, 0.6, -0.05)">
      <use data-characterId="37" height="34.45" transform="matrix(1.0, 0.0, 0.0, 1.0, -0.6, 0.05)" width="117.7" xlink:href="#text0"/>
    </g>
    <g id="text0" transform="matrix(1.0, 0.0, 0.0, 1.0, 18.6, 1.95)">
      <g transform="matrix(1.0, 0.0, 0.0, 1.0, -19.95, 0.0)">
        <use fill="#aeff5e" height="34.45" transform="matrix(0.0137, 0.0, 0.0, 0.0137, 29.0, 12.0)" width="117.7" xlink:href="#font_____________0"/>
        <use fill="#aeff5e" height="34.45" transform="matrix(0.0137, 0.0, 0.0, 0.0137, 43.4, 12.0)" width="117.7" xlink:href="#font_____________1"/>
        <use fill="#aeff5e" height="34.45" transform="matrix(0.0137, 0.0, 0.0, 0.0137, 57.8, 12.0)" width="117.7" xlink:href="#font_____________2"/>
        <use fill="#aeff5e" height="34.45" transform="matrix(0.0137, 0.0, 0.0, 0.0137, 72.2, 12.0)" width="117.7" xlink:href="#font_____________3"/>
      </g>
      <g transform="matrix(1.0, 0.0, 0.0, 1.0, -19.95, 0.0)">
        <use fill="#aeff5e" height="34.45" transform="matrix(0.0137, 0.0, 0.0, 0.0137, 86.6, 12.0)" width="117.7" xlink:href="#font_____________4"/>
      </g>
      <g transform="matrix(1.0, 0.0, 0.0, 1.0, -19.95, 0.0)">
        <use fill="#aeff5e" height="34.45" transform="matrix(0.0137, 0.0, 0.0, 0.0137, 0.0, 30.0)" width="117.7" xlink:href="#font_____________5"/>
        <use fill="#aeff5e" height="34.45" transform="matrix(0.0137, 0.0, 0.0, 0.0137, 14.4, 30.0)" width="117.7" xlink:href="#font_____________6"/>
        <use fill="#aeff5e" height="34.45" transform="matrix(0.0137, 0.0, 0.0, 0.0137, 28.8, 30.0)" width="117.7" xlink:href="#font_____________7"/>
        <use fill="#aeff5e" height="34.45" transform="matrix(0.0137, 0.0, 0.0, 0.0137, 43.2, 30.0)" width="117.7" xlink:href="#font_____________8"/>
        <use fill="#aeff5e" height="34.45" transform="matrix(0.0137, 0.0, 0.0, 0.0137, 57.6, 30.0)" width="117.7" xlink:href="#font_____________9"/>
        <use fill="#aeff5e" height="34.45" transform="matrix(0.0137, 0.0, 0.0, 0.0137, 72.0, 30.0)" width="117.7" xlink:href="#font_____________10"/>
        <use fill="#aeff5e" height="34.45" transform="matrix(0.0137, 0.0, 0.0, 0.0137, 86.4, 30.0)" width="117.7" xlink:href="#font_____________11"/>
        <use fill="#aeff5e" height="34.45" transform="matrix(0.0137, 0.0, 0.0, 0.0137, 100.8, 30.0)" width="117.7" xlink:href="#font_____________12"/>
      </g>
      <g transform="matrix(1.0, 0.0, 0.0, 1.0, -19.95, 0.0)">
        <use fill="#aeff5e" height="34.45" transform="matrix(0.0137, 0.0, 0.0, 0.0137, 115.2, 30.0)" width="117.7" xlink:href="#font_____________4"/>
      </g>
    </g>
    <g id="font_____________0">
      <path d="M919.5 -44.0 L919.5 -44.0 Q918.5 -65.5 905.0 -86.0 840.5 -182.0 676.0 -334.0 826.5 -490.5 826.5 -601.0 826.5 -728.0 673.0 -728.0 L187.5 -728.0 Q152.5 -728.0 133.0 -706.5 113.5 -685.0 113.5 -654.5 112.5 -623.5 132.0 -601.0 151.5 -579.5 187.5 -579.5 L638.0 -579.5 Q663.5 -579.5 663.5 -569.5 663.5 -563.0 657.5 -550.0 603.0 -450.5 408.5 -298.0 264.0 -184.5 135.0 -107.5 98.5 -85.0 97.5 -46.0 97.5 -16.5 119.0 7.0 140.5 32.0 171.0 32.0 190.5 33.0 211.0 20.5 405.5 -95.0 566.5 -233.5 723.0 -89.0 782.5 -3.0 806.0 33.0 846.0 31.0 873.5 28.5 897.0 7.0 919.5 -14.5 919.5 -44.0" fill-rule="evenodd" stroke="none"/>
    </g>
    <g id="font_____________1">
      <path d="M887.0 -550.0 L887.0 -550.0 Q887.0 -677.0 753.5 -677.0 L510.0 -677.0 Q523.5 -705.5 523.5 -723.0 521.0 -752.5 497.5 -773.0 474.0 -793.5 443.5 -793.5 397.5 -792.5 378.0 -745.5 350.0 -675.0 279.5 -590.0 209.0 -506.0 130.0 -452.5 97.5 -430.0 97.5 -395.0 96.5 -363.5 120.0 -340.0 142.5 -314.5 173.0 -316.5 194.5 -317.5 215.0 -330.5 333.0 -409.5 425.0 -535.5 L694.5 -535.5 Q732.0 -535.5 724.0 -536.5 738.5 -534.5 738.5 -522.0 738.5 -515.0 733.0 -503.0 699.5 -379.0 560.0 -258.0 409.5 -128.0 229.5 -84.0 173.0 -69.5 173.0 -14.5 173.0 16.5 193.5 40.0 212.0 63.5 246.0 63.5 256.0 63.5 265.0 60.5 506.0 1.0 691.0 -175.0 887.0 -360.5 887.0 -550.0" fill-rule="evenodd" stroke="none"/>
    </g>
    <g id="font_____________2">
      <path d="M982.0 -372.5 L982.0 -372.5 Q982.0 -402.5 963.5 -425.0 942.0 -449.5 908.5 -449.5 L115.5 -449.5 Q80.0 -449.5 60.5 -425.0 41.0 -399.5 41.0 -368.5 41.0 -340.0 59.5 -317.5 81.0 -291.0 115.5 -291.0 L908.5 -291.0 Q943.0 -291.0 963.5 -318.5 982.0 -341.0 982.0 -372.5" fill-rule="evenodd" stroke="none"/>
    </g>
    <g id="font_____________3">
      <path d="M952.5 -767.0 L952.5 -767.0 Q952.5 -747.5 938.0 -733.0 923.5 -720.0 905.0 -720.0 886.0 -720.0 871.5 -732.0 858.0 -745.5 858.0 -766.0 858.0 -811.0 905.0 -811.0 925.5 -811.0 939.0 -798.5 952.5 -786.5 952.5 -767.0 M921.5 -574.5 L921.5 -574.5 Q921.5 -624.5 903.0 -655.5 L905.0 -655.5 Q950.5 -654.5 985.0 -687.0 1020.0 -720.0 1020.0 -767.0 1020.0 -815.0 987.0 -845.0 954.5 -875.5 905.0 -875.5 855.0 -875.5 822.5 -845.0 790.5 -814.0 790.5 -765.0 790.5 -731.0 807.0 -706.5 794.5 -708.5 781.5 -708.5 L168.0 -708.5 Q132.0 -708.5 111.5 -684.0 93.0 -663.5 94.0 -633.0 94.0 -602.0 113.5 -580.5 133.0 -559.0 168.0 -559.0 L733.0 -559.0 Q770.0 -559.0 770.0 -536.5 770.0 -530.5 766.0 -517.0 736.5 -393.0 583.5 -270.5 444.5 -158.5 269.5 -98.5 220.0 -83.0 219.0 -31.5 218.0 -2.0 238.5 21.5 258.0 46.0 290.0 46.0 303.0 46.0 317.5 42.0 540.5 -34.0 711.5 -185.5 921.5 -371.5 921.5 -574.5" fill-rule="evenodd" stroke="none"/>
    </g>
    <g id="font_____________4">
      <path d="M273.5 -104.5 L273.5 -104.5 Q273.5 -149.5 238.5 -179.0 203.0 -209.0 156.5 -209.0 110.5 -209.0 76.0 -179.0 41.0 -149.5 41.0 -104.5 41.0 -59.5 76.0 -30.5 110.5 -1.0 156.5 -1.0 203.0 -1.0 237.5 -30.5 273.5 -60.5 273.5 -104.5 M255.0 -708.5 L255.0 -708.5 Q259.0 -762.0 232.5 -791.5 205.0 -821.0 157.5 -821.0 50.0 -821.0 59.5 -707.5 L90.0 -315.5 Q94.0 -262.0 152.5 -262.0 218.0 -262.0 222.0 -315.5 L255.0 -708.5" fill-rule="evenodd" stroke="none"/>
    </g>
    <g id="font_____________5">
      <path d="M348.0 -131.0 L348.0 -131.0 Q306.0 -111.5 275.5 -111.5 235.5 -111.5 235.5 -152.5 235.5 -176.0 258.0 -215.0 285.5 -263.0 333.0 -299.0 336.0 -207.0 348.0 -131.0 M626.5 -371.5 L626.5 -371.5 Q566.5 -293.0 482.5 -222.0 474.0 -292.0 474.0 -364.5 521.0 -375.0 574.5 -375.0 602.0 -375.0 626.5 -371.5 M925.5 -224.0 L925.5 -224.0 Q925.5 -345.0 839.5 -418.0 747.5 -493.5 574.5 -493.5 526.5 -493.5 480.5 -488.5 482.5 -515.0 484.5 -546.0 631.0 -555.0 755.5 -579.5 809.0 -590.0 815.0 -642.0 817.0 -672.5 796.5 -697.5 777.0 -722.0 744.5 -722.0 737.5 -722.0 729.0 -720.0 624.5 -700.5 497.5 -690.0 502.0 -717.0 504.0 -733.0 508.0 -769.0 486.5 -791.5 464.0 -814.0 433.0 -814.0 368.5 -814.0 360.5 -751.5 357.5 -728.0 354.5 -686.0 L222.0 -687.0 Q189.5 -687.0 171.0 -666.5 150.5 -647.0 149.5 -618.5 146.5 -589.0 165.0 -566.0 183.5 -543.5 218.0 -543.5 L340.0 -542.5 Q336.0 -490.5 334.0 -447.5 220.0 -398.5 152.5 -311.5 91.0 -232.5 91.0 -152.5 91.0 -78.0 131.0 -29.5 177.0 24.5 263.0 24.5 312.5 24.5 382.0 -4.0 L384.0 -1.0 Q401.5 44.0 443.5 44.0 474.0 44.0 497.5 23.5 521.0 3.0 521.0 -25.5 521.0 -35.0 509.0 -73.5 663.5 -178.0 755.5 -303.0 782.5 -269.5 782.5 -224.0 782.5 -181.0 736.5 -136.0 695.5 -95.0 636.0 -67.5 594.0 -48.0 593.0 -7.0 593.0 21.5 612.5 44.0 631.0 66.5 657.5 69.5 678.0 71.5 697.5 62.5 786.5 21.5 846.0 -40.0 925.5 -123.0 925.5 -224.0" fill-rule="evenodd" stroke="none"/>
    </g>
    <g id="font_____________6">
      <path d="M913.5 -236.5 L913.5 -236.5 Q913.5 -327.5 844.0 -395.0 765.0 -471.0 640.0 -471.0 450.5 -471.0 301.0 -379.0 310.5 -420.0 318.5 -461.0 332.0 -512.0 332.0 -541.5 332.0 -574.5 308.5 -594.0 285.5 -612.5 254.0 -612.5 193.5 -612.5 183.5 -550.0 171.0 -482.5 157.5 -413.5 142.5 -328.5 142.5 -297.0 142.5 -199.5 218.0 -199.5 246.0 -199.5 307.0 -237.5 390.0 -290.0 441.5 -310.0 535.5 -350.0 640.0 -350.0 701.5 -350.0 734.0 -313.5 765.0 -282.5 765.0 -236.5 765.0 -184.5 706.5 -146.5 637.0 -99.5 515.0 -99.5 431.0 -99.5 395.5 -108.5 357.5 -111.5 334.0 -89.0 311.5 -65.5 311.5 -34.0 311.5 34.0 376.0 39.0 421.0 50.0 515.0 50.0 679.0 50.0 790.5 -22.5 913.5 -101.5 913.5 -236.5 M685.0 -697.5 L685.0 -697.5 Q685.0 -760.0 621.5 -769.0 452.5 -799.5 371.5 -818.0 364.5 -820.0 355.5 -820.0 324.5 -820.0 305.0 -799.5 284.5 -779.0 284.5 -751.5 284.5 -687.0 345.0 -676.0 413.5 -660.5 483.5 -644.0 578.5 -623.5 613.5 -623.5 646.0 -623.5 665.5 -646.0 685.0 -668.5 685.0 -697.5" fill-rule="evenodd" stroke="none"/>
    </g>
    <g id="font_____________7">
      <path d="M647.0 -616.5 L647.0 -616.5 Q646.0 -644.0 625.5 -666.5 606.0 -688.0 576.5 -688.0 564.5 -688.0 553.0 -686.0 514.0 -675.0 429.0 -665.5 440.5 -720.0 440.5 -733.0 440.5 -765.0 418.0 -784.5 396.5 -804.0 365.5 -805.0 302.0 -806.0 292.0 -741.5 285.5 -704.5 274.5 -653.5 199.5 -649.0 137.0 -649.0 102.5 -649.0 84.0 -627.5 64.5 -606.0 64.5 -576.5 62.5 -547.0 82.0 -525.5 101.5 -504.0 137.0 -504.0 184.5 -504.0 238.5 -506.0 167.0 -229.5 104.5 -68.5 98.5 -53.0 98.5 -40.0 98.5 -8.0 122.0 12.5 145.5 33.0 175.0 34.0 225.5 34.0 242.5 -14.5 316.5 -202.5 395.5 -516.0 528.5 -527.5 593.0 -547.0 651.5 -563.0 647.0 -616.5 M947.0 -48.0 L947.0 -48.0 Q947.0 -121.0 865.5 -121.0 829.5 -121.0 759.0 -109.5 689.0 -98.5 652.5 -98.5 625.5 -98.5 604.0 -106.5 573.5 -116.5 573.5 -138.0 573.5 -148.5 581.5 -175.0 590.0 -201.5 590.0 -214.0 590.0 -238.5 570.5 -255.0 550.0 -270.5 518.0 -270.5 478.0 -270.5 453.5 -231.5 430.0 -191.5 430.0 -131.0 430.0 -22.5 516.0 12.5 573.5 35.0 742.5 35.0 825.5 35.0 888.0 18.5 947.0 3.0 947.0 -48.0 M911.5 -449.5 L911.5 -449.5 Q911.5 -478.0 894.0 -498.5 872.5 -520.0 839.5 -521.0 785.5 -523.0 693.5 -514.0 602.0 -504.0 552.0 -492.5 495.5 -479.0 495.5 -429.0 495.5 -397.5 514.0 -375.0 534.5 -350.0 567.5 -350.0 577.5 -350.0 588.0 -352.0 625.5 -362.5 709.5 -370.5 787.5 -377.0 834.5 -377.0 870.5 -377.0 891.0 -398.5 911.5 -420.0 911.5 -449.5" fill-rule="evenodd" stroke="none"/>
    </g>
    <g id="font_____________8">
      <path d="M592.0 -624.5 L592.0 -624.5 Q592.0 -652.5 570.5 -669.5 549.0 -688.0 513.0 -686.0 483.5 -684.0 439.5 -682.0 444.5 -708.5 446.5 -725.0 451.5 -763.0 428.0 -785.5 405.5 -808.0 370.5 -808.0 344.0 -808.0 323.5 -790.5 303.0 -773.0 300.0 -741.5 296.0 -717.0 284.5 -676.0 210.0 -674.0 152.5 -674.0 119.0 -674.0 98.5 -654.5 78.0 -635.0 78.0 -610.5 78.0 -579.5 97.5 -558.0 115.5 -536.5 151.5 -536.5 190.5 -536.5 241.5 -537.5 161.0 -310.0 113.5 -247.0 82.0 -205.0 82.0 -180.0 82.0 -148.5 103.5 -126.0 124.0 -101.5 154.5 -101.5 176.0 -101.5 200.5 -120.0 239.5 -149.5 301.0 -285.5 352.5 -400.5 398.5 -543.5 476.0 -547.0 525.5 -550.0 592.0 -557.0 592.0 -624.5 M626.5 -140.5 L626.5 -140.5 Q626.5 -105.5 596.0 -82.0 570.5 -62.5 538.5 -62.5 496.5 -62.5 466.0 -75.5 431.0 -93.0 431.0 -121.0 431.0 -148.5 458.0 -166.0 484.5 -182.0 528.5 -182.0 551.0 -182.0 583.5 -170.0 616.5 -156.5 626.5 -140.5 M935.0 -88.0 L935.0 -88.0 Q935.0 -165.0 775.0 -228.5 L775.0 -425.0 Q775.0 -456.5 752.5 -474.0 731.0 -492.5 699.5 -492.5 626.5 -492.5 626.5 -426.0 626.5 -266.0 626.5 -267.0 553.0 -291.0 506.0 -291.0 431.0 -291.0 376.0 -247.0 313.5 -196.5 313.5 -120.0 313.5 -40.0 387.0 5.0 449.5 44.0 546.0 44.0 710.5 44.0 768.0 -87.0 779.5 -82.0 793.5 -68.5 847.0 -23.5 871.5 -23.5 935.0 -23.5 935.0 -88.0 M948.5 -568.5 L948.5 -568.5 Q950.5 -601.0 917.5 -627.5 840.5 -687.0 783.5 -714.5 764.0 -724.0 744.5 -724.0 719.0 -724.0 701.5 -706.5 685.0 -690.0 684.0 -665.5 680.0 -620.5 727.0 -594.0 791.5 -557.0 835.5 -523.0 861.0 -504.0 888.0 -504.0 913.5 -506.0 930.0 -525.5 948.5 -543.5 948.5 -568.5" fill-rule="evenodd" stroke="none"/>
    </g>
    <g id="font_____________9">
      <path d="M881.5 -578.5 L881.5 -578.5 Q881.5 -706.5 752.5 -706.5 L209.0 -706.5 Q179.0 -706.5 162.0 -686.0 144.5 -665.5 144.5 -639.0 144.5 -609.0 161.0 -590.0 178.0 -567.5 209.0 -567.5 L688.0 -567.5 Q718.0 -567.5 727.0 -555.0 732.0 -546.0 732.0 -515.0 L732.0 -180.0 Q732.0 -148.5 722.0 -139.0 711.5 -131.0 679.0 -131.0 L204.0 -131.0 Q135.0 -131.0 135.0 -57.5 135.0 -30.5 153.5 -11.0 172.0 9.0 204.0 9.0 L753.5 9.0 Q808.0 9.0 845.0 -25.5 881.5 -61.5 881.5 -115.5 L881.5 -578.5" fill-rule="evenodd" stroke="none"/>
    </g>
    <g id="font_____________10">
      <path d="M887.0 -550.0 L887.0 -550.0 Q887.0 -677.0 753.5 -677.0 L510.0 -677.0 Q523.5 -705.5 523.5 -723.0 521.0 -752.5 497.5 -773.0 474.0 -793.5 443.5 -793.5 397.5 -792.5 378.0 -745.5 350.0 -675.0 279.5 -590.0 209.0 -506.0 130.0 -452.5 97.5 -430.0 97.5 -395.0 96.5 -363.5 120.0 -340.0 142.5 -314.5 173.0 -316.5 194.5 -317.5 215.0 -330.5 333.0 -409.5 425.0 -535.5 L694.5 -535.5 Q732.0 -535.5 724.0 -536.5 738.5 -534.5 738.5 -522.0 738.5 -515.0 733.0 -503.0 699.5 -379.0 560.0 -258.0 409.5 -128.0 229.5 -84.0 173.0 -69.5 173.0 -14.5 173.0 16.5 193.5 40.0 212.0 63.5 246.0 63.5 256.0 63.5 265.0 60.5 506.0 1.0 691.0 -175.0 887.0 -360.5 887.0 -550.0 M873.5 -720.0 L873.5 -720.0 Q873.5 -741.5 867.5 -759.0 848.0 -799.5 816.0 -837.5 797.5 -859.0 776.0 -859.0 731.0 -859.0 731.0 -823.5 731.0 -805.0 748.5 -778.0 781.5 -728.0 794.5 -706.5 808.0 -685.0 833.5 -685.0 848.0 -685.0 861.0 -695.5 873.5 -706.5 873.5 -720.0 M1016.0 -731.0 L1016.0 -731.0 Q1016.0 -752.5 1008.5 -770.0 989.0 -812.0 957.5 -851.0 940.0 -871.5 918.5 -871.5 872.5 -871.5 872.5 -834.5 872.5 -816.0 890.0 -789.5 922.5 -739.5 936.0 -718.0 948.5 -696.5 975.0 -696.5 1016.0 -696.5 1016.0 -731.0" fill-rule="evenodd" stroke="none"/>
    </g>
    <g id="font_____________11">
      <path d="M120.0 -701.5 L120.0 -701.5 Q82.0 -701.5 64.5 -685.0 47.0 -670.5 47.0 -628.5 47.0 -589.0 64.5 -573.5 84.0 -557.0 120.0 -557.0 L273.5 -557.0 Q246.0 -455.5 190.5 -340.0 140.5 -241.5 47.0 -133.0 32.0 -116.5 32.0 -85.0 32.0 -60.5 55.5 -40.0 85.0 -17.5 111.5 -17.5 154.5 -17.5 179.0 -45.0 265.0 -144.5 339.0 -306.0 402.5 -451.5 427.0 -557.0 L435.0 -557.0 435.0 -200.5 347.0 -200.5 Q312.5 -200.5 299.0 -188.5 279.5 -173.0 279.5 -133.0 279.5 -92.0 299.0 -78.0 316.5 -61.5 347.0 -61.5 L435.0 -61.5 435.0 31.0 Q435.0 62.5 453.5 84.0 475.0 110.5 516.0 110.5 560.0 110.5 580.5 83.0 596.0 62.5 596.0 31.0 L596.0 -61.5 676.0 -61.5 Q716.0 -61.5 733.0 -83.0 743.5 -97.0 743.5 -133.0 743.5 -175.0 726.0 -186.5 709.5 -200.5 676.0 -200.5 L596.0 -200.5 596.0 -557.0 607.5 -557.0 Q610.5 -535.5 613.5 -515.0 648.0 -384.0 694.5 -286.5 761.0 -136.0 860.0 -41.0 882.5 -20.5 915.5 -20.5 958.5 -20.5 980.0 -48.0 999.5 -66.5 999.5 -89.0 999.5 -122.0 976.0 -141.5 879.5 -243.5 835.5 -326.5 791.5 -409.5 744.5 -557.0 L904.0 -557.0 Q943.0 -557.0 962.5 -579.5 976.0 -596.0 976.0 -628.5 976.0 -670.5 960.5 -685.0 943.0 -701.5 904.0 -701.5 L596.0 -701.5 596.0 -765.0 Q596.0 -803.0 573.5 -823.5 552.0 -845.0 516.0 -845.0 477.0 -845.0 459.0 -823.5 435.0 -803.0 435.0 -765.0 L435.0 -701.5 120.0 -701.5" fill-rule="evenodd" stroke="none"/>
    </g>
    <g id="font_____________12">
      <path d="M724.0 -649.0 L724.0 -649.0 808.0 -649.0 Q816.0 -649.0 816.0 -637.0 816.0 -555.0 771.0 -464.0 764.0 -450.5 764.0 -433.0 764.0 -413.5 773.0 -391.0 816.0 -310.0 816.0 -244.5 816.0 -202.5 808.0 -185.5 795.5 -156.5 764.0 -156.5 746.5 -156.5 724.0 -159.5 L724.0 -649.0 M651.5 -793.5 L651.5 -793.5 Q592.0 -793.5 592.0 -721.0 L592.0 51.0 Q595.0 104.5 659.5 107.5 721.0 104.5 724.0 51.0 L724.0 -24.5 Q765.0 -13.5 812.0 -13.5 883.5 -13.5 918.5 -64.5 951.5 -105.5 951.5 -196.5 951.5 -312.5 900.0 -441.5 951.5 -606.0 951.5 -708.5 951.5 -793.5 875.5 -793.5 L651.5 -793.5 M239.5 -68.5 L239.5 -68.5 Q223.5 -68.5 223.5 -85.0 L223.5 -156.5 Q223.5 -173.0 239.5 -173.0 L380.0 -173.0 Q395.5 -173.0 395.5 -156.5 L395.5 -85.0 Q395.5 -68.5 380.0 -68.5 L239.5 -68.5 M172.0 -301.0 L172.0 -301.0 Q91.0 -301.0 91.0 -221.0 L91.0 -17.5 Q91.0 63.5 172.0 63.5 L451.5 63.5 Q531.5 63.5 531.5 -17.5 L531.5 -221.0 Q531.5 -301.0 451.5 -301.0 L172.0 -301.0 M290.0 -473.0 L290.0 -473.0 Q287.0 -493.5 273.5 -522.0 245.0 -584.5 223.5 -605.0 222.0 -607.0 220.0 -609.0 L386.0 -609.0 Q376.0 -598.0 371.5 -577.5 362.5 -523.0 344.0 -473.0 L290.0 -473.0 M311.5 -829.5 L311.5 -829.5 Q273.5 -829.5 257.0 -814.0 235.5 -789.5 235.5 -761.0 L235.5 -741.5 115.5 -741.5 Q83.0 -741.5 69.5 -729.0 51.0 -714.5 51.0 -677.0 51.0 -639.0 69.5 -624.5 87.0 -609.0 115.5 -609.0 L127.0 -609.0 Q118.0 -602.0 112.5 -593.0 107.5 -578.5 107.5 -569.5 107.5 -562.0 109.5 -557.0 137.0 -510.0 156.5 -473.0 L103.5 -473.0 Q72.5 -473.0 60.5 -461.0 43.0 -447.5 43.0 -408.5 43.0 -372.5 60.5 -359.5 77.0 -345.0 103.5 -345.0 L516.0 -345.0 Q551.0 -345.0 566.5 -364.5 575.5 -377.0 575.5 -408.5 575.5 -448.5 560.0 -459.5 546.0 -473.0 516.0 -473.0 L473.0 -473.0 Q486.5 -513.0 493.5 -552.0 495.5 -559.0 495.5 -565.0 495.5 -595.0 475.0 -609.0 L495.5 -609.0 Q533.5 -609.0 550.0 -629.5 560.0 -643.0 560.0 -677.0 560.0 -717.0 543.0 -728.0 527.5 -741.5 495.5 -741.5 L391.0 -741.5 391.0 -761.0 Q391.0 -794.5 368.5 -813.0 351.5 -829.5 311.5 -829.5" fill-rule="evenodd" stroke="none"/>
    </g>
    <g id="button0" transform="matrix(1.0, 0.0, 0.0, 1.0, 0.0, 0.0)">
      <use data-characterId="39" height="60.0" transform="matrix(1.0, 0.0, 0.0, 1.0, 0.0, 0.0)" width="174.0" xlink:href="#shape1"/>
    </g>
    <g id="shape1" transform="matrix(1.0, 0.0, 0.0, 1.0, 0.0, 0.0)">
      <path d="M174.0 56.0 L0.0 60.0 16.0 3.0 162.0 0.0 174.0 56.0" fill="#ffb2b2" fill-opacity="0.0" fill-rule="evenodd" stroke="none"/>
    </g>
  </defs>
</svg>
