<?xml version="1.0" encoding="UTF-8" standalone="no"?>
<svg xmlns:xlink="http://www.w3.org/1999/xlink" height="67.2px" width="204.0px" xmlns="http://www.w3.org/2000/svg">
  <g transform="matrix(1.0, 0.0, 0.0, 1.0, 17.0, 5.6)">
    <use data-characterId="52" height="56.0" transform="matrix(1.1, 0.0, 0.0, 1.1, -8.5, -2.8)" width="170.0" xlink:href="#sprite0"/>
    <use data-characterId="54" height="34.4" transform="matrix(1.0993, -0.0384, 0.0384, 1.0993, 33.6317, 10.0382)" width="87.3" xlink:href="#sprite1"/>
    <use data-characterId="56" height="56.0" id="btn" transform="matrix(1.0, 0.0, 0.0, 1.0, 0.0, 0.1)" width="170.0" xlink:href="#button0"/>
  </g>
  <defs>
    <g id="sprite0" transform="matrix(1.0, 0.0, 0.0, 1.0, 0.0, 0.0)">
      <use data-characterId="51" height="56.0" transform="matrix(1.0, 0.0, 0.0, 1.0, 0.0, 0.0)" width="170.0" xlink:href="#shape0"/>
    </g>
    <g id="shape0" transform="matrix(1.0, 0.0, 0.0, 1.0, 0.0, -0.1)">
      <path d="M0.0 3.1 L161.0 0.1 170.0 51.1 2.0 56.1 0.0 3.1" fill="#333333" fill-rule="evenodd" stroke="none"/>
      <path d="M3.95 6.1 L157.95 3.1 166.95 48.1 5.95 53.1 3.95 6.1" fill="url(#gradient0)" fill-rule="evenodd" stroke="none"/>
      <path d="M157.95 3.1 L153.95 7.1 8.45 10.6 3.95 6.1 157.95 3.1" fill="url(#gradient1)" fill-rule="evenodd" stroke="none"/>
      <path d="M154.0 7.1 L158.0 3.1 167.0 48.1 161.5 42.6 154.0 7.1" fill="url(#gradient2)" fill-rule="evenodd" stroke="none"/>
      <path d="M161.45 42.6 L166.95 48.1 5.95 53.1 10.95 48.1 161.45 42.6" fill="url(#gradient3)" fill-rule="evenodd" stroke="none"/>
      <path d="M10.95 48.1 L5.95 53.1 3.95 6.1 8.45 10.6 10.95 48.1" fill="url(#gradient4)" fill-rule="evenodd" stroke="none"/>
      <path d="M153.5 38.5 L15.5 43.5 14.5 16.5 148.5 10.5 153.5 38.5" fill="#ff0000" fill-opacity="0.3019608" fill-rule="evenodd" stroke="none"/>
    </g>
    <linearGradient gradientTransform="matrix(0.0, 0.0305, -0.0305, 0.0, 85.45, 28.1)" gradientUnits="userSpaceOnUse" id="gradient0" spreadMethod="pad" x1="-819.2" x2="819.2">
      <stop offset="0.0" stop-color="#a2a723"/>
      <stop offset="0.0" stop-color="#ff6f00"/>
      <stop offset="1.0" stop-color="#ffe17c"/>
    </linearGradient>
    <linearGradient gradientTransform="matrix(0.0, -0.0046, 0.0046, 0.0, 80.95, 6.85)" gradientUnits="userSpaceOnUse" id="gradient1" spreadMethod="pad" x1="-819.2" x2="819.2">
      <stop offset="0.0" stop-color="#a2a723"/>
      <stop offset="0.0" stop-color="#ff6f00"/>
      <stop offset="1.0" stop-color="#ffe17c"/>
    </linearGradient>
    <linearGradient gradientTransform="matrix(0.0, -0.0275, 0.0275, 0.0, 160.5, 25.6)" gradientUnits="userSpaceOnUse" id="gradient2" spreadMethod="pad" x1="-819.2" x2="819.2">
      <stop offset="0.0" stop-color="#a2a723"/>
      <stop offset="0.0" stop-color="#ff6f00"/>
      <stop offset="1.0" stop-color="#ffe17c"/>
    </linearGradient>
    <linearGradient gradientTransform="matrix(0.0, -0.0064, 0.0064, 0.0, 86.45, 47.85)" gradientUnits="userSpaceOnUse" id="gradient3" spreadMethod="pad" x1="-819.2" x2="819.2">
      <stop offset="0.0" stop-color="#a2a723"/>
      <stop offset="0.0" stop-color="#ff6f00"/>
      <stop offset="1.0" stop-color="#ffe17c"/>
    </linearGradient>
    <linearGradient gradientTransform="matrix(0.0, -0.0287, 0.0287, 0.0, 7.45, 29.6)" gradientUnits="userSpaceOnUse" id="gradient4" spreadMethod="pad" x1="-819.2" x2="819.2">
      <stop offset="0.0" stop-color="#a2a723"/>
      <stop offset="0.0" stop-color="#ff6f00"/>
      <stop offset="1.0" stop-color="#ffe17c"/>
    </linearGradient>
    <g id="sprite1" transform="matrix(1.0, 0.0, 0.0, 1.0, -17.55, 2.9)">
      <use data-characterId="53" height="34.4" transform="matrix(1.0, 0.0, 0.0, 1.0, 17.55, -2.9)" width="87.3" xlink:href="#text0"/>
    </g>
    <g id="text0" transform="matrix(1.0, 0.0, 0.0, 1.0, 4.45, 1.9)">
      <g transform="matrix(1.0, 0.0, 0.0, 1.0, -5.0, 0.0)">
        <use fill="#aeff5e" height="34.4" transform="matrix(0.0137, 0.0, 0.0, 0.0137, 8.0, 12.0)" width="87.3" xlink:href="#font_____________0"/>
        <use fill="#aeff5e" height="34.4" transform="matrix(0.0137, 0.0, 0.0, 0.0137, 23.0, 12.0)" width="87.3" xlink:href="#font_____________1"/>
        <use fill="#aeff5e" height="34.4" transform="matrix(0.0137, 0.0, 0.0, 0.0137, 38.0, 12.0)" width="87.3" xlink:href="#font_____________2"/>
        <use fill="#aeff5e" height="34.4" transform="matrix(0.0137, 0.0, 0.0, 0.0137, 53.0, 12.0)" width="87.3" xlink:href="#font_____________3"/>
        <use fill="#aeff5e" height="34.4" transform="matrix(0.0137, 0.0, 0.0, 0.0137, 68.0, 12.0)" width="87.3" xlink:href="#font_____________4"/>
      </g>
      <g transform="matrix(1.0, 0.0, 0.0, 1.0, -5.0, 0.0)">
        <use fill="#aeff5e" height="34.4" transform="matrix(0.0137, 0.0, 0.0, 0.0137, 0.0, 30.0)" width="87.3" xlink:href="#font_____________5"/>
        <use fill="#aeff5e" height="34.4" transform="matrix(0.0137, 0.0, 0.0, 0.0137, 15.0, 30.0)" width="87.3" xlink:href="#font_____________6"/>
        <use fill="#aeff5e" height="34.4" transform="matrix(0.0137, 0.0, 0.0, 0.0137, 30.0, 30.0)" width="87.3" xlink:href="#font_____________7"/>
        <use fill="#aeff5e" height="34.4" transform="matrix(0.0137, 0.0, 0.0, 0.0137, 45.0, 30.0)" width="87.3" xlink:href="#font_____________8"/>
        <use fill="#aeff5e" height="34.4" transform="matrix(0.0137, 0.0, 0.0, 0.0137, 60.0, 30.0)" width="87.3" xlink:href="#font_____________9"/>
        <use fill="#aeff5e" height="34.4" transform="matrix(0.0137, 0.0, 0.0, 0.0137, 75.0, 30.0)" width="87.3" xlink:href="#font_____________10"/>
      </g>
    </g>
    <g id="font_____________0">
      <path d="M934.0 -62.5 L934.0 -62.5 Q933.0 -94.0 911.5 -116.5 887.0 -140.5 850.0 -138.0 689.0 -117.5 574.5 -117.5 495.5 -117.5 465.0 -126.0 400.5 -142.5 400.5 -197.5 400.5 -242.5 409.5 -422.0 581.5 -448.5 716.0 -464.0 734.0 -468.0 734.0 -455.5 734.0 -449.5 730.0 -442.5 681.0 -373.5 666.5 -349.0 652.5 -328.5 652.5 -306.0 652.5 -275.5 677.0 -253.0 700.5 -231.5 732.0 -232.5 768.0 -233.5 789.5 -266.0 851.0 -356.5 868.5 -388.0 919.5 -479.0 919.5 -534.5 919.5 -622.5 793.5 -622.5 769.0 -622.5 420.0 -572.5 L428.0 -719.0 Q430.0 -755.5 406.5 -776.0 384.0 -796.5 352.5 -796.5 322.5 -794.5 303.0 -778.0 280.5 -759.0 279.5 -725.0 L269.5 -549.0 142.5 -531.5 Q81.0 -523.0 79.0 -462.0 78.0 -431.0 98.5 -407.5 118.0 -384.0 150.5 -384.0 157.5 -384.0 165.0 -385.0 L260.0 -399.5 Q252.0 -238.5 252.0 -197.5 252.0 32.0 574.5 32.0 698.5 32.0 869.5 9.0 902.0 7.0 919.5 -15.5 935.0 -35.0 934.0 -62.5" fill-rule="evenodd" stroke="none"/>
    </g>
    <g id="font_____________1">
      <path d="M333.0 -664.5 L333.0 -664.5 Q333.0 -700.5 308.5 -720.0 284.5 -740.5 254.0 -738.5 225.5 -737.0 204.0 -718.0 183.5 -698.5 183.5 -664.5 L183.5 -408.5 Q183.5 -203.5 88.0 -79.0 72.5 -58.5 71.5 -37.0 69.5 -7.0 93.0 17.5 118.0 41.0 147.5 42.0 182.5 42.0 206.0 11.5 333.0 -153.5 333.0 -408.5 L333.0 -664.5 M957.5 -314.5 L957.5 -314.5 Q966.5 -333.0 966.5 -351.0 966.5 -382.0 942.0 -403.5 917.5 -425.0 887.0 -424.0 846.0 -422.0 825.5 -383.0 764.0 -263.0 680.0 -170.0 654.5 -139.0 643.0 -139.0 624.5 -139.0 624.5 -174.0 L624.5 -700.5 Q624.5 -736.0 602.0 -755.5 579.5 -775.0 549.0 -773.0 518.0 -773.0 496.5 -753.5 475.0 -735.0 475.0 -700.5 L475.0 -147.5 Q475.0 -72.5 506.0 -24.5 543.0 34.0 614.5 34.0 657.5 34.0 712.5 -2.0 839.5 -84.0 957.5 -314.5" fill-rule="evenodd" stroke="none"/>
    </g>
    <g id="font_____________2">
      <path d="M313.5 -325.5 L313.5 -325.5 Q318.5 -341.0 318.5 -353.0 318.5 -385.0 295.0 -405.5 271.5 -426.0 240.5 -426.0 190.5 -426.0 173.0 -375.0 130.0 -253.0 69.5 -148.5 58.5 -128.0 58.5 -108.5 58.5 -78.0 82.0 -56.5 105.5 -35.0 136.0 -35.0 176.0 -35.0 197.5 -72.5 265.0 -190.5 313.5 -325.5 M944.0 -575.5 L944.0 -575.5 Q945.0 -603.0 927.0 -622.5 905.0 -645.0 870.5 -645.0 L608.5 -645.0 608.5 -728.0 Q608.5 -763.0 582.5 -784.5 562.0 -803.0 531.5 -802.0 503.0 -802.0 481.5 -782.5 460.0 -763.0 460.0 -728.0 L460.0 -645.0 156.5 -645.0 Q122.0 -645.0 102.5 -624.5 83.0 -605.0 83.0 -576.5 82.0 -547.0 100.5 -527.5 122.0 -505.0 156.5 -505.0 L460.0 -505.0 460.0 -156.5 Q460.0 -121.0 439.5 -121.0 430.0 -121.0 404.5 -127.0 378.0 -133.0 367.5 -133.0 337.0 -133.0 318.5 -113.5 299.0 -94.0 299.0 -63.5 299.0 0.0 356.5 13.5 433.0 31.0 470.0 31.0 608.5 31.0 608.5 -136.0 L608.5 -505.0 870.5 -505.0 Q905.0 -505.0 924.5 -525.5 944.0 -547.0 944.0 -575.5 M941.0 -156.5 L941.0 -156.5 Q882.5 -288.5 846.0 -375.0 826.5 -418.0 781.5 -418.0 750.5 -419.0 726.0 -398.5 701.5 -377.0 701.5 -346.0 701.5 -330.5 710.5 -312.5 772.0 -173.0 805.0 -95.0 826.5 -48.0 875.5 -51.0 904.0 -52.0 925.5 -72.5 948.5 -94.0 948.5 -123.0 948.5 -139.0 941.0 -156.5 M872.5 -717.0 L872.5 -717.0 Q872.5 -738.5 866.5 -754.5 847.0 -796.5 815.0 -835.5 796.5 -856.0 775.0 -856.0 730.0 -856.0 730.0 -819.0 730.0 -800.5 747.5 -773.0 780.5 -724.0 793.5 -702.5 807.0 -681.0 832.5 -681.0 847.0 -681.0 860.0 -691.0 872.5 -702.5 872.5 -717.0 M1011.5 -731.0 L1011.5 -731.0 Q1011.5 -752.5 1004.5 -770.0 985.0 -812.0 953.5 -851.0 936.0 -871.5 914.5 -871.5 868.5 -871.5 868.5 -834.5 868.5 -816.0 886.0 -789.5 918.5 -739.5 932.0 -718.0 945.0 -696.5 971.0 -696.5 1011.5 -696.5 1011.5 -731.0" fill-rule="evenodd" stroke="none"/>
    </g>
    <g id="font_____________3">
      <path d="M348.0 -304.0 L348.0 -304.0 Q337.0 -351.0 322.5 -396.5 316.5 -409.5 285.5 -490.5 269.5 -533.5 226.5 -533.5 198.5 -533.5 177.0 -515.0 154.5 -495.5 154.5 -468.0 154.5 -455.5 161.0 -441.5 206.0 -322.5 217.0 -274.5 229.5 -219.0 283.5 -222.0 311.5 -223.0 331.0 -240.5 350.0 -258.0 350.0 -287.5 350.0 -296.0 348.0 -304.0 M864.5 -431.0 L864.5 -431.0 Q866.5 -439.5 866.5 -446.5 866.5 -475.0 845.0 -493.5 824.5 -511.0 796.5 -511.0 741.5 -511.0 732.0 -455.5 700.5 -271.5 610.5 -170.0 539.5 -93.0 389.0 -24.5 349.0 -7.0 349.0 35.0 349.0 61.5 368.5 83.0 387.0 104.5 415.0 104.5 430.0 104.5 444.5 98.5 623.5 17.5 711.5 -84.0 826.5 -213.0 864.5 -431.0 M579.5 -347.0 L579.5 -347.0 Q576.5 -389.0 562.0 -439.5 555.0 -470.0 535.5 -530.5 519.0 -577.5 472.0 -577.5 443.5 -577.5 423.0 -559.0 402.5 -542.5 402.5 -514.0 402.5 -503.0 407.5 -490.5 436.5 -391.0 445.5 -331.5 453.5 -271.5 513.0 -272.5 540.5 -272.5 561.0 -293.0 581.5 -313.5 579.5 -347.0" fill-rule="evenodd" stroke="none"/>
    </g>
    <g id="font_____________4">
      <path d="M862.0 -355.5 L862.0 -355.5 Q862.0 -406.5 811.0 -424.0 L448.5 -533.5 448.5 -719.0 Q448.5 -751.5 427.0 -772.0 406.5 -791.5 377.0 -792.5 345.0 -794.5 323.5 -776.0 300.0 -754.5 300.0 -719.0 L300.0 -18.5 Q300.0 16.5 320.5 36.0 340.0 55.5 369.5 56.5 400.5 58.5 425.0 38.0 448.5 18.5 448.5 -18.5 L448.5 -377.0 766.0 -280.5 Q781.5 -277.5 795.5 -277.5 826.5 -278.5 845.0 -302.0 864.5 -325.5 862.0 -355.5" fill-rule="evenodd" stroke="none"/>
    </g>
    <g id="font_____________5">
      <path d="M120.0 -701.5 L120.0 -701.5 Q82.0 -701.5 64.5 -685.0 47.0 -670.5 47.0 -628.5 47.0 -589.0 64.5 -573.5 84.0 -557.0 120.0 -557.0 L273.5 -557.0 Q246.0 -455.5 190.5 -340.0 140.5 -241.5 47.0 -133.0 32.0 -116.5 32.0 -85.0 32.0 -60.5 55.5 -40.0 85.0 -17.5 111.5 -17.5 154.5 -17.5 179.0 -45.0 265.0 -144.5 339.0 -306.0 402.5 -451.5 427.0 -557.0 L435.0 -557.0 435.0 -200.5 347.0 -200.5 Q312.5 -200.5 299.0 -188.5 279.5 -173.0 279.5 -133.0 279.5 -92.0 299.0 -78.0 316.5 -61.5 347.0 -61.5 L435.0 -61.5 435.0 31.0 Q435.0 62.5 453.5 84.0 475.0 110.5 516.0 110.5 560.0 110.5 580.5 83.0 596.0 62.5 596.0 31.0 L596.0 -61.5 676.0 -61.5 Q716.0 -61.5 733.0 -83.0 743.5 -97.0 743.5 -133.0 743.5 -175.0 726.0 -186.5 709.5 -200.5 676.0 -200.5 L596.0 -200.5 596.0 -557.0 607.5 -557.0 Q610.5 -535.5 613.5 -515.0 648.0 -384.0 694.5 -286.5 761.0 -136.0 860.0 -41.0 882.5 -20.5 915.5 -20.5 958.5 -20.5 980.0 -48.0 999.5 -66.5 999.5 -89.0 999.5 -122.0 976.0 -141.5 879.5 -243.5 835.5 -326.5 791.5 -409.5 744.5 -557.0 L904.0 -557.0 Q943.0 -557.0 962.5 -579.5 976.0 -596.0 976.0 -628.5 976.0 -670.5 960.5 -685.0 943.0 -701.5 904.0 -701.5 L596.0 -701.5 596.0 -765.0 Q596.0 -803.0 573.5 -823.5 552.0 -845.0 516.0 -845.0 477.0 -845.0 459.0 -823.5 435.0 -803.0 435.0 -765.0 L435.0 -701.5 120.0 -701.5" fill-rule="evenodd" stroke="none"/>
    </g>
    <g id="font_____________6">
      <path d="M724.0 -649.0 L724.0 -649.0 808.0 -649.0 Q816.0 -649.0 816.0 -637.0 816.0 -555.0 771.0 -464.0 764.0 -450.5 764.0 -433.0 764.0 -413.5 773.0 -391.0 816.0 -310.0 816.0 -244.5 816.0 -202.5 808.0 -185.5 795.5 -156.5 764.0 -156.5 746.5 -156.5 724.0 -159.5 L724.0 -649.0 M651.5 -793.5 L651.5 -793.5 Q592.0 -793.5 592.0 -721.0 L592.0 51.0 Q595.0 104.5 659.5 107.5 721.0 104.5 724.0 51.0 L724.0 -24.5 Q765.0 -13.5 812.0 -13.5 883.5 -13.5 918.5 -64.5 951.5 -105.5 951.5 -196.5 951.5 -312.5 900.0 -441.5 951.5 -606.0 951.5 -708.5 951.5 -793.5 875.5 -793.5 L651.5 -793.5 M239.5 -68.5 L239.5 -68.5 Q223.5 -68.5 223.5 -85.0 L223.5 -156.5 Q223.5 -173.0 239.5 -173.0 L380.0 -173.0 Q395.5 -173.0 395.5 -156.5 L395.5 -85.0 Q395.5 -68.5 380.0 -68.5 L239.5 -68.5 M172.0 -301.0 L172.0 -301.0 Q91.0 -301.0 91.0 -221.0 L91.0 -17.5 Q91.0 63.5 172.0 63.5 L451.5 63.5 Q531.5 63.5 531.5 -17.5 L531.5 -221.0 Q531.5 -301.0 451.5 -301.0 L172.0 -301.0 M290.0 -473.0 L290.0 -473.0 Q287.0 -493.5 273.5 -522.0 245.0 -584.5 223.5 -605.0 222.0 -607.0 220.0 -609.0 L386.0 -609.0 Q376.0 -598.0 371.5 -577.5 362.5 -523.0 344.0 -473.0 L290.0 -473.0 M311.5 -829.5 L311.5 -829.5 Q273.5 -829.5 257.0 -814.0 235.5 -789.5 235.5 -761.0 L235.5 -741.5 115.5 -741.5 Q83.0 -741.5 69.5 -729.0 51.0 -714.5 51.0 -677.0 51.0 -639.0 69.5 -624.5 87.0 -609.0 115.5 -609.0 L127.0 -609.0 Q118.0 -602.0 112.5 -593.0 107.5 -578.5 107.5 -569.5 107.5 -562.0 109.5 -557.0 137.0 -510.0 156.5 -473.0 L103.5 -473.0 Q72.5 -473.0 60.5 -461.0 43.0 -447.5 43.0 -408.5 43.0 -372.5 60.5 -359.5 77.0 -345.0 103.5 -345.0 L516.0 -345.0 Q551.0 -345.0 566.5 -364.5 575.5 -377.0 575.5 -408.5 575.5 -448.5 560.0 -459.5 546.0 -473.0 516.0 -473.0 L473.0 -473.0 Q486.5 -513.0 493.5 -552.0 495.5 -559.0 495.5 -565.0 495.5 -595.0 475.0 -609.0 L495.5 -609.0 Q533.5 -609.0 550.0 -629.5 560.0 -643.0 560.0 -677.0 560.0 -717.0 543.0 -728.0 527.5 -741.5 495.5 -741.5 L391.0 -741.5 391.0 -761.0 Q391.0 -794.5 368.5 -813.0 351.5 -829.5 311.5 -829.5" fill-rule="evenodd" stroke="none"/>
    </g>
    <g id="font_____________7">
      <path d="M446.5 -558.0 L446.5 -558.0 Q446.5 -444.5 410.5 -343.0 382.0 -261.0 337.0 -207.0 299.0 -158.5 272.5 -158.5 220.0 -158.5 220.0 -270.5 220.0 -398.5 279.5 -482.5 339.0 -565.0 445.5 -590.0 446.5 -579.5 446.5 -558.0 M956.5 -365.5 L956.5 -365.5 Q956.5 -547.0 838.5 -644.0 728.0 -735.0 536.5 -735.0 320.5 -735.0 196.5 -603.0 79.0 -478.0 79.0 -268.5 79.0 -173.0 123.0 -99.5 176.0 -10.0 272.5 -10.0 402.5 -10.0 503.0 -193.5 595.0 -365.5 595.0 -558.0 595.0 -578.5 593.0 -597.0 808.0 -573.5 808.0 -365.5 808.0 -261.0 741.5 -197.5 691.0 -150.5 578.5 -107.5 528.5 -89.0 528.5 -44.0 528.5 -11.0 550.0 12.5 571.5 35.0 605.0 35.0 612.5 35.0 642.0 27.5 763.0 -4.0 844.0 -84.0 956.5 -192.5 956.5 -365.5" fill-rule="evenodd" stroke="none"/>
    </g>
    <g id="font_____________8">
      <path d="M886.0 -77.0 L886.0 -77.0 Q883.5 -108.5 860.0 -132.0 836.5 -154.5 799.0 -151.5 623.5 -127.0 465.0 -127.0 375.0 -127.0 348.0 -138.0 310.5 -158.5 310.5 -229.5 L310.5 -394.0 Q689.0 -473.0 793.5 -524.5 834.5 -543.5 835.5 -585.5 837.5 -613.5 818.0 -639.0 797.5 -663.5 770.0 -665.5 749.5 -666.5 729.0 -656.5 649.0 -619.5 310.5 -546.0 L310.5 -705.5 Q310.5 -741.5 284.5 -762.0 264.0 -780.5 233.5 -779.0 204.0 -779.0 182.5 -760.0 161.0 -740.5 161.0 -705.5 L161.0 -229.5 Q161.0 -88.0 243.5 -29.5 315.5 23.5 465.0 23.5 634.0 23.5 822.5 -5.0 855.0 -8.0 871.5 -29.5 888.0 -50.0 886.0 -77.0" fill-rule="evenodd" stroke="none"/>
    </g>
    <g id="font_____________9">
      <path d="M882.5 -28.5 L882.5 -28.5 Q883.5 -80.0 832.5 -97.0 734.0 -130.0 524.5 -180.0 296.0 -234.5 173.0 -248.0 137.0 -253.0 114.5 -231.5 92.0 -211.0 90.0 -179.0 89.0 -149.5 106.5 -127.0 122.0 -105.5 155.5 -100.5 271.5 -86.0 489.5 -36.0 691.0 12.5 784.5 43.0 796.5 48.0 811.0 48.0 840.5 48.0 861.0 24.5 881.5 2.0 882.5 -28.5 M833.5 -356.5 L833.5 -356.5 Q836.5 -413.5 780.5 -429.0 679.0 -461.0 513.0 -491.5 356.5 -520.0 271.5 -525.5 235.5 -528.5 214.0 -506.0 192.5 -483.5 190.5 -451.5 190.5 -424.0 209.0 -402.5 226.5 -381.0 259.0 -378.0 340.0 -371.5 485.5 -344.0 643.0 -316.5 737.5 -288.5 749.5 -284.5 762.0 -284.5 791.5 -284.5 813.0 -307.0 830.5 -328.5 833.5 -356.5 M883.5 -633.0 L883.5 -633.0 Q886.0 -687.0 829.5 -703.5 733.0 -729.0 540.5 -760.0 368.5 -786.5 278.5 -794.5 240.5 -796.5 219.0 -774.0 197.5 -752.5 196.5 -722.0 195.5 -693.0 214.0 -670.5 231.5 -649.0 265.0 -645.0 353.5 -639.0 516.0 -612.5 700.5 -584.5 790.5 -559.0 802.0 -557.0 813.0 -557.0 845.0 -557.0 863.5 -579.5 883.5 -602.0 883.5 -633.0" fill-rule="evenodd" stroke="none"/>
    </g>
    <g id="font_____________10">
      <path d="M311.5 -431.0 L311.5 -431.0 Q299.0 -485.5 279.5 -540.5 272.5 -558.0 236.5 -652.5 218.0 -700.5 171.0 -700.5 139.5 -700.5 115.5 -680.0 92.0 -659.5 92.0 -628.5 92.0 -613.5 98.5 -599.0 151.5 -457.5 166.0 -397.5 179.0 -338.0 239.5 -341.0 269.5 -342.0 291.0 -361.5 312.5 -382.0 312.5 -412.5 312.5 -421.0 311.5 -431.0 M932.0 -602.0 L932.0 -602.0 Q933.0 -611.5 933.0 -618.5 933.0 -651.0 910.5 -670.5 888.0 -690.0 857.0 -690.0 796.5 -690.0 785.5 -628.5 745.5 -406.5 636.0 -277.5 546.0 -174.0 367.5 -94.0 323.5 -72.5 323.5 -28.5 323.5 2.0 345.0 24.5 365.5 49.0 397.5 49.0 412.5 49.0 430.0 42.0 637.0 -52.0 749.5 -182.0 886.0 -342.0 932.0 -602.0 M587.0 -483.5 L587.0 -483.5 Q581.5 -538.5 567.5 -594.0 560.0 -619.5 534.5 -700.5 517.0 -752.5 463.0 -751.5 433.0 -751.5 410.5 -732.0 388.0 -712.5 388.0 -682.0 388.0 -669.5 391.0 -655.5 429.0 -536.5 439.5 -467.0 448.5 -399.5 513.0 -400.5 545.0 -400.5 567.5 -424.0 590.0 -446.5 587.0 -483.5" fill-rule="evenodd" stroke="none"/>
    </g>
    <g id="button0" transform="matrix(1.0, 0.0, 0.0, 1.0, 0.0, 0.0)">
      <use data-characterId="55" height="56.0" transform="matrix(1.0, 0.0, 0.0, 1.0, 0.0, 0.0)" width="170.0" xlink:href="#shape1"/>
    </g>
    <g id="shape1" transform="matrix(1.0, 0.0, 0.0, 1.0, 0.0, 0.0)">
      <path d="M0.0 3.0 L161.0 0.0 170.0 51.0 2.0 56.0 0.0 3.0" fill="#ffb2b2" fill-opacity="0.0" fill-rule="evenodd" stroke="none"/>
    </g>
  </defs>
</svg>
