<?xml version="1.0" encoding="UTF-8" standalone="no"?>
<svg xmlns:xlink="http://www.w3.org/1999/xlink" height="48.95px" width="104.7px" xmlns="http://www.w3.org/2000/svg">
  <g transform="matrix(1.0, 0.0, 0.0, 1.0, -5.05, -1.4)">
    <path d="M46.85 21.35 L46.95 19.55 49.4 19.8 49.2 18.1 53.2 17.8 52.6 26.65 50.05 26.5 49.25 25.3 49.15 27.5 44.75 27.35 44.95 25.55 Q46.35 23.95 46.85 21.35" fill="#f7f619" fill-rule="evenodd" stroke="none"/>
    <path d="M46.85 21.35 Q46.35 23.95 44.95 25.55 L44.75 27.35 49.15 27.5 49.25 25.3 50.05 26.5 52.6 26.65 53.2 17.8 49.2 18.1 49.4 19.8 46.95 19.55 46.85 21.35 Z" fill="none" stroke="#000000" stroke-linecap="square" stroke-linejoin="bevel" stroke-width="0.30000000000000004"/>
    <path d="M102.6 5.55 L105.15 5.8 Q106.1 6.3 106.45 7.35 106.8 8.35 106.5 9.7 L105.75 12.7 104.65 17.3 103.45 22.35 102.35 26.95 103.05 28.9 103.05 31.15 Q102.7 33.15 101.5 34.55 100.35 35.95 98.7 36.2 L80.9 38.8 77.75 38.65 75.95 37.9 75.45 37.35 75.3 37.2 75.15 37.05 Q72.4 39.35 69.45 40.2 66.45 41.1 63.6 40.25 61.05 39.45 59.35 37.45 57.55 35.5 56.6 32.65 L39.8 31.25 Q38.75 32.55 37.4 33.0 L34.8 33.5 32.75 33.2 Q32.9 34.2 32.5 34.7 32.1 35.15 31.5 35.45 L30.3 36.0 27.35 37.35 23.95 39.0 21.05 40.3 18.05 40.4 Q17.0 39.6 16.85 37.35 L16.65 35.2 16.35 31.75 16.0 28.05 15.7 25.05 15.6 23.85 13.4 24.65 12.6 24.9 12.5 24.95 10.5 24.75 Q9.7 24.2 9.3 23.0 L8.45 20.1 7.35 16.3 6.2 12.35 5.25 9.05 Q4.95 7.95 5.15 7.05 5.4 6.15 6.2 5.65 7.05 5.15 8.5 5.25 L10.8 5.5 14.2 5.9 18.05 6.35 21.7 6.8 24.35 7.15 25.4 7.25 Q27.0 5.1 28.95 4.45 30.95 3.8 32.95 4.4 34.95 4.95 36.6 6.45 38.3 7.9 39.4 9.85 40.9 8.95 42.45 8.75 44.0 8.6 45.4 9.15 46.75 9.75 47.7 11.1 48.15 10.2 48.65 9.85 L49.8 9.3 51.15 9.1 53.85 8.65 57.2 8.1 60.3 7.7 62.1 7.4 Q64.2 5.05 66.55 3.55 68.9 2.1 71.35 1.6 L76.1 1.85 Q78.55 2.6 80.3 4.5 82.0 6.4 83.0 9.1 L84.8 8.8 88.1 8.15 92.3 7.4 96.6 6.65 100.25 6.0 102.6 5.55" fill="#f8350f" fill-rule="evenodd" stroke="none"/>
    <path d="M104.05 8.45 L99.4 27.85 Q99.85 28.35 100.0 29.15 100.2 29.9 100.05 30.85 99.85 32.0 99.25 32.8 98.6 33.6 97.8 33.7 L97.45 33.75 96.7 33.85 95.8 34.05 94.85 34.15 92.5 34.4 89.45 34.8 86.4 35.15 84.05 35.45 83.1 35.55 81.55 36.75 79.75 37.0 78.2 36.15 Q77.6 35.45 77.3 34.6 77.0 33.8 77.05 33.1 L75.8 32.5 74.85 34.45 73.7 35.95 68.45 37.15 67.55 35.75 63.5 37.25 61.85 36.15 Q61.15 35.4 60.75 34.65 L60.1 33.35 59.9 32.8 60.35 30.6 59.85 30.5 51.6 29.9 52.0 28.0 50.35 27.95 50.15 29.25 43.0 28.95 43.45 26.75 Q42.6 27.2 41.7 27.2 40.15 27.1 39.15 26.1 38.55 28.1 37.3 29.4 36.15 30.7 34.55 31.05 L32.05 31.15 Q30.9 30.95 29.9 30.4 L30.4 32.55 19.8 37.3 17.7 19.55 11.75 21.6 8.35 8.1 26.5 9.25 27.35 12.95 Q28.85 11.2 31.35 10.6 33.4 10.2 35.3 11.65 37.15 13.15 38.4 15.95 39.3 14.75 40.55 14.15 41.8 13.6 43.1 13.65 44.2 13.75 45.15 14.55 46.05 15.3 46.65 16.55 L49.35 16.4 49.8 11.55 65.65 9.1 66.2 6.2 Q67.95 5.05 69.5 4.5 L72.0 3.9 73.0 3.8 76.8 6.6 76.5 8.45 78.25 7.75 81.2 9.05 81.55 9.95 82.0 11.95 82.1 15.0 83.5 15.05 83.8 12.2 92.3 12.7 92.25 10.15 104.05 8.45" fill="#000000" fill-rule="evenodd" stroke="none"/>
    <path d="M94.4 16.9 L94.35 11.85 101.1 11.2 98.0 26.85 94.8 26.85 93.7 24.95 93.5 27.75 89.4 27.85 89.95 15.5 93.7 15.6 94.4 16.9" fill="#f7f619" fill-rule="evenodd" stroke="none"/>
    <path d="M94.4 16.9 L93.7 15.6 89.95 15.5 89.4 27.85 93.5 27.75 93.7 24.95 94.8 26.85 98.0 26.85 101.1 11.2 94.35 11.85 94.4 16.9 Z" fill="none" stroke="#000000" stroke-linecap="square" stroke-linejoin="bevel" stroke-width="0.30000000000000004"/>
    <path d="M51.6 16.3 L51.6 12.55 63.95 10.55 63.15 16.6 59.25 16.5 59.2 28.75 53.5 28.0 54.95 16.5 51.6 16.3" fill="#f7f619" fill-rule="evenodd" stroke="none"/>
    <path d="M51.6 16.3 L54.95 16.5 53.5 28.0 59.2 28.75 59.25 16.5 63.15 16.6 63.95 10.55 51.6 12.55 51.6 16.3 Z" fill="none" stroke="#000000" stroke-linecap="square" stroke-linejoin="bevel" stroke-width="0.30000000000000004"/>
    <path d="M26.8 14.85 L23.75 15.75 28.65 31.05 21.1 33.65 18.7 17.3 13.15 18.8 11.05 10.6 25.75 10.65 26.8 14.85" fill="#f7f619" fill-rule="evenodd" stroke="none"/>
    <path d="M26.8 14.85 L25.75 10.65 11.05 10.6 13.15 18.8 18.7 17.3 21.1 33.65 28.65 31.05 23.75 15.75 26.8 14.85 Z" fill="none" stroke="#000000" stroke-linecap="square" stroke-linejoin="bevel" stroke-width="0.30000000000000004"/>
    <path d="M84.05 19.25 L84.5 15.25 89.1 15.05 87.4 28.5 84.5 28.6 83.4 25.65 82.35 27.85 79.35 27.8 77.85 17.0 81.85 16.9 82.5 19.3 83.2 17.55 84.05 19.25" fill="#f7f619" fill-rule="evenodd" stroke="none"/>
    <path d="M84.05 19.25 L83.2 17.55 82.5 19.3 81.85 16.9 77.85 17.0 79.35 27.8 82.35 27.85 83.4 25.65 84.5 28.6 87.4 28.5 89.1 15.05 84.5 15.25 84.05 19.25 Z" fill="none" stroke="#000000" stroke-linecap="square" stroke-linejoin="bevel" stroke-width="0.30000000000000004"/>
    <path d="M29.75 14.25 Q30.65 12.95 31.95 12.6 33.3 12.3 34.5 13.15 35.8 14.0 36.7 15.65 37.65 17.35 38.0 19.55 38.35 21.85 38.0 23.8 37.65 25.75 36.75 27.05 35.9 28.4 34.55 28.7 33.2 29.0 31.95 28.15 30.75 27.3 29.8 25.65 28.9 23.95 28.5 21.75 28.15 19.45 28.5 17.5 28.85 15.55 29.75 14.25" fill="#666666" fill-rule="evenodd" stroke="none"/>
    <path d="M29.7 14.25 Q30.6 12.95 31.9 12.6 33.25 12.3 34.5 13.15 35.75 14.0 36.7 15.65 37.6 17.35 37.95 19.6 38.35 21.85 37.95 23.75 37.65 25.7 36.75 27.05 35.85 28.35 34.5 28.7 33.2 28.95 31.95 28.1 30.7 27.3 29.8 25.6 28.9 23.95 28.5 21.7 28.15 19.45 28.5 17.5 28.85 15.55 29.7 14.25" fill="#6a6a69" fill-rule="evenodd" stroke="none"/>
    <path d="M37.95 23.75 Q37.6 25.7 36.7 27.0 35.85 28.3 34.5 28.65 33.2 28.9 31.95 28.05 30.7 27.25 29.8 25.55 28.9 23.9 28.5 21.7 28.15 19.45 28.45 17.5 28.8 15.55 29.7 14.25 30.6 12.95 31.9 12.6 33.25 12.3 34.45 13.15 35.75 14.0 36.65 15.65 37.6 17.35 37.95 19.6 38.3 21.8 37.95 23.75" fill="#6d6d6d" fill-rule="evenodd" stroke="none"/>
    <path d="M37.95 23.75 Q37.65 25.65 36.75 26.95 35.85 28.25 34.55 28.6 33.25 28.85 32.0 28.05 30.75 27.2 29.85 25.55 28.95 23.9 28.55 21.65 28.2 19.45 28.5 17.5 28.85 15.55 29.75 14.25 30.6 12.95 31.9 12.6 33.25 12.3 34.5 13.15 35.75 14.0 36.7 15.65 37.6 17.35 38.0 19.6 38.35 21.8 37.95 23.75" fill="#717171" fill-rule="evenodd" stroke="none"/>
    <path d="M37.95 23.7 Q37.6 25.6 36.7 26.95 35.85 28.2 34.5 28.55 33.2 28.8 31.95 28.0 30.75 27.15 29.85 25.5 28.9 23.85 28.55 21.65 28.2 19.45 28.5 17.5 28.85 15.55 29.75 14.25 30.6 12.95 31.9 12.6 33.25 12.3 34.45 13.15 35.75 14.0 36.65 15.65 37.6 17.35 37.95 19.6 38.3 21.8 37.95 23.7" fill="#757575" fill-rule="evenodd" stroke="none"/>
    <path d="M38.0 23.7 Q37.7 25.6 36.8 26.9 35.9 28.15 34.6 28.5 33.3 28.75 32.05 27.95 30.85 27.1 29.95 25.45 29.0 23.8 28.65 21.65 28.3 19.4 28.6 17.5 28.95 15.55 29.8 14.2 30.7 12.9 31.95 12.6 33.3 12.3 34.55 13.15 35.8 13.95 36.75 15.65 37.65 17.35 38.05 19.65 38.35 21.8 38.0 23.7" fill="#797979" fill-rule="evenodd" stroke="none"/>
    <path d="M38.0 23.7 Q37.65 25.55 36.75 26.85 35.9 28.15 34.55 28.45 33.25 28.7 32.05 27.9 30.85 27.05 29.95 25.45 29.0 23.8 28.65 21.6 28.3 19.4 28.6 17.45 28.95 15.55 29.8 14.2 30.65 12.9 31.95 12.6 33.3 12.3 34.5 13.15 35.8 13.95 36.7 15.65 37.65 17.35 38.0 19.65 38.3 21.8 38.0 23.7" fill="#7c7c7c" fill-rule="evenodd" stroke="none"/>
    <path d="M37.95 23.65 Q37.6 25.55 36.75 26.85 35.85 28.1 34.55 28.4 33.25 28.7 32.05 27.85 30.85 27.05 29.9 25.4 29.0 23.75 28.65 21.6 28.3 19.4 28.6 17.45 28.95 15.55 29.8 14.2 30.65 12.9 31.9 12.6 33.25 12.3 34.5 13.15 35.7 13.95 36.7 15.65 37.6 17.35 38.0 19.65 38.3 21.8 37.95 23.65" fill="#808080" fill-rule="evenodd" stroke="none"/>
    <path d="M38.0 23.65 Q37.65 25.5 36.75 26.75 35.9 28.05 34.6 28.35 33.3 28.65 32.05 27.8 30.85 27.0 29.95 25.35 29.05 23.7 28.7 21.55 28.35 19.4 28.65 17.45 28.95 15.55 29.8 14.2 30.65 12.9 31.95 12.6 33.3 12.3 34.5 13.15 35.75 13.95 36.7 15.65 37.65 17.35 38.0 19.65 38.3 21.8 38.0 23.65" fill="#848484" fill-rule="evenodd" stroke="none"/>
    <path d="M31.95 12.6 Q33.25 12.3 34.5 13.15 35.75 13.95 36.65 15.65 37.6 17.35 38.0 19.7 38.3 21.8 37.95 23.65 37.6 25.5 36.75 26.75 35.85 28.0 34.55 28.3 33.3 28.6 32.05 27.75 30.85 26.95 29.95 25.3 29.05 23.7 28.7 21.55 28.35 19.35 28.65 17.45 28.95 15.55 29.8 14.2 30.65 12.9 31.95 12.6" fill="#888888" fill-rule="evenodd" stroke="none"/>
    <path d="M31.9 12.6 Q33.25 12.35 34.45 13.15 35.7 13.95 36.65 15.65 37.6 17.35 37.95 19.7 38.25 21.75 37.9 23.6 37.6 25.45 36.7 26.7 35.85 27.95 34.55 28.3 33.25 28.55 32.05 27.75 30.85 26.9 29.95 25.3 29.05 23.65 28.7 21.5 28.35 19.35 28.65 17.45 28.95 15.55 29.8 14.2 30.65 12.9 31.9 12.6" fill="#8b8b8b" fill-rule="evenodd" stroke="none"/>
    <path d="M32.0 12.6 Q33.3 12.35 34.55 13.15 35.75 13.95 36.7 15.65 37.65 17.35 38.05 19.7 38.35 21.75 38.0 23.6 37.65 25.4 36.75 26.65 35.9 27.95 34.65 28.25 33.35 28.5 32.15 27.7 30.95 26.85 30.05 25.25 29.15 23.6 28.8 21.5 28.45 19.35 28.75 17.45 29.05 15.5 29.9 14.2 30.7 12.9 32.0 12.6" fill="#8f8e8f" fill-rule="evenodd" stroke="none"/>
    <path d="M32.0 12.6 Q33.35 12.35 34.55 13.15 35.8 13.95 36.75 15.65 37.65 17.35 38.05 19.75 38.35 21.75 38.0 23.55 37.65 25.4 36.8 26.6 35.9 27.9 34.65 28.2 33.4 28.45 32.15 27.6 31.0 26.8 30.1 25.2 29.2 23.6 28.85 21.45 28.5 19.3 28.8 17.4 29.1 15.5 29.9 14.2 30.75 12.9 32.0 12.6" fill="#939392" fill-rule="evenodd" stroke="none"/>
    <path d="M32.0 12.6 Q33.3 12.35 34.55 13.15 35.75 13.95 36.7 15.65 37.65 17.35 38.05 19.75 38.3 21.75 38.0 23.55 37.65 25.35 36.75 26.6 35.9 27.85 34.65 28.15 33.35 28.4 32.15 27.55 31.0 26.75 30.1 25.15 29.2 23.55 28.85 21.45 28.5 19.3 28.8 17.4 29.1 15.5 29.9 14.2 30.7 12.9 32.0 12.6" fill="#979797" fill-rule="evenodd" stroke="none"/>
    <path d="M31.95 12.6 Q33.25 12.35 34.5 13.15 35.75 13.95 36.7 15.65 37.6 17.35 38.0 19.75 38.3 21.75 37.95 23.55 37.6 25.35 36.75 26.55 35.9 27.8 34.6 28.1 33.35 28.35 32.15 27.55 30.95 26.7 30.1 25.15 29.2 23.5 28.85 21.4 28.5 19.3 28.8 17.4 29.05 15.5 29.9 14.2 30.7 12.9 31.95 12.6" fill="#9a9a9a" fill-rule="evenodd" stroke="none"/>
    <path d="M32.0 12.6 Q33.3 12.35 34.55 13.15 35.75 13.95 36.7 15.65 37.65 17.35 38.05 19.75 38.3 21.7 38.0 23.5 37.6 25.3 36.75 26.5 35.9 27.75 34.65 28.05 33.4 28.3 32.2 27.5 31.0 26.65 30.15 25.1 29.25 23.5 28.9 21.4 28.55 19.3 28.8 17.4 29.1 15.5 29.9 14.2 30.75 12.9 32.0 12.6" fill="#9f9e9e" fill-rule="evenodd" stroke="none"/>
    <path d="M31.95 12.6 Q33.25 12.35 34.5 13.15 35.75 13.95 36.7 15.65 37.6 17.35 38.0 19.8 38.3 21.7 37.95 23.5 37.6 25.25 36.75 26.5 35.9 27.75 34.65 28.0 33.35 28.25 32.2 27.45 31.0 26.65 30.15 25.05 29.25 23.45 28.9 21.35 28.55 19.3 28.8 17.4 29.1 15.5 29.9 14.2 30.7 12.9 31.95 12.6" fill="#a2a2a2" fill-rule="evenodd" stroke="none"/>
    <path d="M32.05 12.6 Q33.3 12.35 34.6 13.15 35.8 13.95 36.75 15.65 37.7 17.35 38.1 19.8 38.35 21.7 38.05 23.45 37.65 25.25 36.8 26.45 35.95 27.7 34.7 28.0 33.45 28.25 32.25 27.4 31.1 26.6 30.25 25.0 29.35 23.4 29.0 21.35 28.65 19.25 28.9 17.4 29.2 15.5 30.0 14.2 30.8 12.9 32.05 12.6" fill="#a5a4a5" fill-rule="evenodd" stroke="none"/>
    <path d="M32.0 12.6 Q33.3 12.35 34.55 13.15 35.8 13.95 36.75 15.65 37.65 17.35 38.05 19.8 38.35 21.7 38.0 23.45 37.65 25.2 36.8 26.4 35.95 27.6 34.7 27.95 33.4 28.2 32.25 27.35 31.1 26.55 30.25 24.95 29.35 23.4 29.0 21.3 28.65 19.25 28.9 17.4 29.2 15.5 30.0 14.2 30.75 12.9 32.0 12.6" fill="#a9a9a9" fill-rule="evenodd" stroke="none"/>
    <path d="M32.0 12.6 Q33.25 12.35 34.55 13.15 35.75 13.95 36.7 15.65 37.65 17.35 38.05 19.8 38.3 21.7 37.95 23.45 37.6 25.2 36.75 26.4 35.9 27.6 34.65 27.9 33.4 28.15 32.25 27.3 31.1 26.5 30.2 24.9 29.35 23.35 29.0 21.3 28.65 19.25 28.9 17.35 29.2 15.5 29.95 14.2 30.7 12.9 32.0 12.6" fill="#adadad" fill-rule="evenodd" stroke="none"/>
    <path d="M31.95 12.6 Q33.25 12.35 34.5 13.15 35.75 13.95 36.7 15.65 37.6 17.35 38.0 19.85 38.25 21.7 37.95 23.4 37.6 25.15 36.75 26.35 35.9 27.55 34.65 27.85 33.4 28.1 32.25 27.3 31.1 26.45 30.2 24.9 29.35 23.3 29.0 21.25 28.65 19.2 28.9 17.35 29.15 15.5 29.95 14.2 30.7 12.9 31.95 12.6" fill="#b1b1b1" fill-rule="evenodd" stroke="none"/>
    <path d="M31.95 12.6 Q33.2 12.35 34.5 13.15 35.7 13.95 36.65 15.65 37.6 17.35 38.0 19.85 38.25 21.7 37.9 23.4 37.55 25.1 36.7 26.3 35.85 27.5 34.65 27.8 33.35 28.05 32.2 27.25 31.05 26.4 30.2 24.85 29.35 23.3 29.0 21.25 28.65 19.2 28.9 17.35 29.15 15.5 29.95 14.2 30.7 12.9 31.95 12.6" fill="#b4b4b4" fill-rule="evenodd" stroke="none"/>
    <path d="M31.9 12.6 Q33.2 12.35 34.45 13.15 35.7 13.95 36.65 15.65 37.55 17.35 37.95 19.85 38.2 21.7 37.9 23.4 37.55 25.1 36.7 26.25 35.85 27.45 34.6 27.75 33.35 28.0 32.2 27.2 31.05 26.4 30.2 24.8 29.35 23.25 29.0 21.2 28.65 19.2 28.9 17.35 29.15 15.5 29.9 14.2 30.65 12.9 31.9 12.6" fill="#b8b8b8" fill-rule="evenodd" stroke="none"/>
    <path d="M32.05 12.6 Q33.3 12.35 34.6 13.15 35.8 13.95 36.75 15.65 37.7 17.35 38.1 19.85 38.35 21.65 38.0 23.35 37.65 25.05 36.8 26.25 35.95 27.4 34.75 27.75 33.5 27.95 32.35 27.15 31.2 26.35 30.35 24.75 29.5 23.2 29.15 21.2 28.8 19.2 29.05 17.35 29.3 15.5 30.05 14.2 30.8 12.9 32.05 12.6" fill="#bcbcbc" fill-rule="evenodd" stroke="none"/>
    <path d="M32.05 12.6 Q33.35 12.35 34.6 13.15 35.85 13.95 36.8 15.65 37.7 17.4 38.1 19.9 38.35 21.65 38.0 23.35 37.65 25.05 36.85 26.2 36.0 27.35 34.75 27.7 33.5 27.9 32.4 27.1 31.25 26.3 30.4 24.75 29.55 23.15 29.2 21.2 28.85 19.2 29.1 17.35 29.35 15.5 30.05 14.2 30.8 12.9 32.05 12.6" fill="#c0c0c0" fill-rule="evenodd" stroke="none"/>
    <path d="M32.05 12.6 Q33.3 12.35 34.55 13.15 35.8 13.95 36.75 15.65 37.7 17.4 38.1 19.9 38.35 21.65 37.95 23.35 37.65 24.95 36.8 26.15 35.95 27.35 34.75 27.6 33.5 27.85 32.35 27.05 31.25 26.25 30.4 24.7 29.55 23.15 29.2 21.15 28.85 19.15 29.1 17.3 29.35 15.45 30.05 14.15 30.8 12.9 32.05 12.6" fill="#c2c2c3" fill-rule="evenodd" stroke="none"/>
    <path d="M32.0 12.6 Q33.3 12.35 34.55 13.15 35.8 13.95 36.75 15.65 37.65 17.4 38.05 19.9 38.3 21.65 37.95 23.3 37.6 24.95 36.8 26.15 35.95 27.3 34.75 27.6 33.5 27.85 32.35 27.0 31.25 26.2 30.4 24.65 29.55 23.1 29.2 21.15 28.85 19.15 29.1 17.3 29.3 15.45 30.05 14.15 30.8 12.9 32.0 12.6" fill="#c7c7c7" fill-rule="evenodd" stroke="none"/>
    <path d="M32.0 12.6 Q33.25 12.35 34.5 13.15 35.75 13.95 36.7 15.65 37.65 17.4 38.0 19.9 38.25 21.65 37.9 23.3 37.6 24.9 36.75 26.1 35.9 27.25 34.7 27.55 33.45 27.8 32.35 27.0 31.2 26.15 30.4 24.6 29.55 23.05 29.2 21.1 28.85 19.15 29.1 17.3 29.3 15.45 30.0 14.15 30.75 12.9 32.0 12.6" fill="#cccbcb" fill-rule="evenodd" stroke="none"/>
    <path d="M31.95 12.6 Q33.25 12.35 34.45 13.15 35.75 13.95 36.7 15.65 37.65 17.4 38.0 19.95 38.25 21.65 37.9 23.3 37.55 24.9 36.75 26.05 35.9 27.2 34.7 27.5 33.45 27.75 32.35 26.95 31.2 26.15 30.4 24.6 29.55 23.05 29.2 21.1 28.85 19.15 29.1 17.3 29.3 15.45 30.0 14.15 30.75 12.9 31.95 12.6" fill="#cecdce" fill-rule="evenodd" stroke="none"/>
    <path d="M32.05 12.6 Q33.3 12.35 34.55 13.15 35.8 13.95 36.75 15.65 37.7 17.4 38.05 19.95 38.3 21.65 37.95 23.25 37.65 24.85 36.8 26.05 36.0 27.15 34.8 27.45 33.55 27.7 32.45 26.9 31.3 26.1 30.5 24.55 29.65 23.0 29.3 21.05 28.95 19.1 29.15 17.3 29.4 15.45 30.1 14.15 30.8 12.9 32.05 12.6" fill="#d3d2d2" fill-rule="evenodd" stroke="none"/>
    <path d="M32.0 12.6 Q33.3 12.35 34.5 13.15 35.8 13.9 36.75 15.65 37.7 17.4 38.05 19.95 38.3 21.65 37.95 23.2 37.6 24.85 36.8 26.0 35.95 27.15 34.75 27.4 33.55 27.65 32.4 26.85 31.3 26.05 30.45 24.5 29.65 22.95 29.3 21.05 28.95 19.1 29.15 17.3 29.4 15.45 30.1 14.15 30.8 12.9 32.0 12.6" fill="#d6d5d5" fill-rule="evenodd" stroke="none"/>
    <path d="M32.0 12.6 Q33.25 12.35 34.5 13.15 35.75 13.9 36.7 15.65 37.65 17.4 38.0 19.95 38.25 21.6 37.9 23.2 37.55 24.8 36.75 25.95 35.95 27.1 34.75 27.35 33.5 27.6 32.4 26.8 31.3 26.0 30.45 24.45 29.65 22.95 29.3 21.0 28.95 19.1 29.15 17.25 29.4 15.45 30.05 14.15 30.8 12.9 32.0 12.6" fill="#dad9d9" fill-rule="evenodd" stroke="none"/>
    <path d="M31.95 12.6 Q33.25 12.35 34.45 13.15 35.75 13.9 36.7 15.65 37.65 17.4 38.0 20.0 38.25 21.6 37.85 23.2 37.55 24.75 36.7 25.9 35.9 27.05 34.7 27.35 33.5 27.55 32.4 26.75 31.3 25.95 30.45 24.45 29.65 22.9 29.3 21.0 28.95 19.05 29.15 17.25 29.35 15.45 30.05 14.15 30.75 12.9 31.95 12.6" fill="#dddddd" fill-rule="evenodd" stroke="none"/>
    <path d="M31.95 12.6 Q33.25 12.35 34.5 13.15 35.75 13.9 36.7 15.65 37.65 17.4 38.0 20.0 38.25 21.6 37.9 23.15 37.55 24.75 36.75 25.85 35.95 27.0 34.75 27.3 33.5 27.5 32.45 26.7 31.35 25.9 30.5 24.4 29.7 22.9 29.35 21.0 29.0 19.05 29.2 17.25 29.4 15.45 30.1 14.15 30.8 12.9 31.95 12.6" fill="#e2e1e1" fill-rule="evenodd" stroke="none"/>
    <path d="M31.95 12.6 Q33.25 12.35 34.45 13.15 35.75 13.9 36.7 15.65 37.65 17.4 38.0 20.0 38.2 21.6 37.85 23.15 37.55 24.7 36.7 25.85 35.9 26.95 34.75 27.25 33.5 27.45 32.4 26.65 31.3 25.85 30.5 24.35 29.7 22.85 29.35 20.95 29.0 19.05 29.2 17.25 29.4 15.45 30.1 14.15 30.75 12.9 31.95 12.6" fill="#e5e4e4" fill-rule="evenodd" stroke="none"/>
    <path d="M32.0 12.6 Q33.3 12.35 34.55 13.15 35.8 13.9 36.75 15.65 37.7 17.4 38.05 20.0 38.25 21.6 37.95 23.1 37.6 24.7 36.8 25.8 36.0 26.95 34.8 27.2 33.6 27.4 32.5 26.6 31.4 25.8 30.6 24.3 29.8 22.8 29.45 20.95 29.1 19.05 29.3 17.25 29.5 15.45 30.15 14.15 30.85 12.9 32.0 12.6" fill="#eaeae9" fill-rule="evenodd" stroke="none"/>
    <path d="M32.05 12.6 Q33.3 12.35 34.55 13.15 35.85 13.9 36.8 15.65 37.75 17.4 38.1 20.05 38.3 21.6 37.95 23.1 37.65 24.65 36.8 25.75 36.0 26.9 34.85 27.15 33.65 27.4 32.55 26.55 31.45 25.75 30.65 24.3 29.85 22.8 29.5 20.9 29.15 19.05 29.35 17.25 29.55 15.45 30.2 14.15 30.9 12.9 32.05 12.6" fill="#ededed" fill-rule="evenodd" stroke="none"/>
    <path d="M32.0 12.6 Q33.3 12.35 34.55 13.15 35.8 13.9 36.75 15.65 37.7 17.4 38.1 20.05 38.3 21.6 37.95 23.1 37.6 24.6 36.8 25.7 36.0 26.85 34.8 27.1 33.6 27.35 32.55 26.55 31.45 25.75 30.65 24.25 29.85 22.75 29.5 20.9 29.2 19.0 29.35 17.2 29.55 15.45 30.2 14.15 30.85 12.9 32.0 12.6" fill="#f1f0f0" fill-rule="evenodd" stroke="none"/>
    <path d="M32.05 12.6 Q33.3 12.35 34.55 13.1 35.85 13.9 36.8 15.65 37.75 17.4 38.1 20.05 38.3 21.6 37.95 23.05 37.6 24.6 36.8 25.7 36.0 26.8 34.8 27.1 33.65 27.3 32.55 26.5 31.5 25.7 30.7 24.2 29.9 22.7 29.55 20.85 29.25 19.0 29.4 17.2 29.55 15.4 30.2 14.15 30.9 12.9 32.05 12.6" fill="#f5f4f4" fill-rule="evenodd" stroke="none"/>
    <path d="M32.0 12.6 Q33.3 12.35 34.55 13.1 35.8 13.9 36.75 15.65 37.7 17.4 38.1 20.05 38.25 21.55 37.95 23.05 37.6 24.55 36.8 25.65 36.0 26.75 34.8 27.05 33.65 27.25 32.55 26.45 31.5 25.65 30.7 24.15 29.9 22.7 29.55 20.85 29.25 19.0 29.4 17.2 29.55 15.4 30.2 14.15 30.85 12.9 32.0 12.6" fill="#f8f8f8" fill-rule="evenodd" stroke="none"/>
    <path d="M32.0 12.6 Q33.25 12.35 34.5 13.1 35.75 13.9 36.75 15.65 37.7 17.4 38.05 20.05 38.25 21.55 37.9 23.05 37.55 24.55 36.75 25.6 35.95 26.7 34.8 27.0 33.6 27.2 32.55 26.4 31.5 25.6 30.7 24.15 29.9 22.65 29.55 20.8 29.25 19.0 29.4 17.2 29.55 15.4 30.2 14.15 30.85 12.9 32.0 12.6" fill="#fbfbfb" fill-rule="evenodd" stroke="none"/>
    <path d="M31.95 12.6 Q33.25 12.35 34.5 13.1 35.7 13.9 36.7 15.65 37.65 17.4 38.05 20.1 L37.9 23.0 Q37.5 24.5 36.75 25.6 35.95 26.65 34.75 26.95 33.6 27.15 32.55 26.35 31.45 25.55 30.7 24.05 29.9 22.6 29.55 20.8 29.25 18.95 29.4 17.2 29.5 15.4 30.15 14.15 30.8 12.9 31.95 12.6" fill="#ffffff" fill-rule="evenodd" stroke="none"/>
    <path d="M94.4 11.8 L101.2 11.15 98.1 26.8 97.55 26.0 100.25 12.1 95.35 12.55 94.4 11.8" fill="#f6f8b1" fill-rule="evenodd" stroke="none"/>
    <path d="M93.2 21.6 L93.75 24.9 93.5 27.65 92.8 26.85 93.2 21.6" fill="#f6f8b1" fill-rule="evenodd" stroke="none"/>
    <path d="M94.4 16.85 L95.35 19.95 93.3 16.3 90.75 16.25 89.9 15.45 93.7 15.5 94.4 16.85" fill="#f6f8b1" fill-rule="evenodd" stroke="none"/>
    <path d="M51.6 12.7 L63.95 10.7 63.15 16.75 62.45 15.9 63.0 11.7 52.45 13.4 51.6 12.7" fill="#f6f8b1" fill-rule="evenodd" stroke="none"/>
    <path d="M58.3 27.9 L58.35 15.75 59.15 16.6 59.1 28.9 58.3 27.9" fill="#f6f8b1" fill-rule="evenodd" stroke="none"/>
    <path d="M25.75 10.8 L26.8 15.0 25.6 14.35 24.9 11.7 12.15 11.65 11.05 10.7 25.75 10.8" fill="#f6f8b1" fill-rule="evenodd" stroke="none"/>
    <path d="M27.5 30.55 L22.55 15.2 23.85 15.85 28.8 31.1 27.5 30.55" fill="#f6f8b1" fill-rule="evenodd" stroke="none"/>
    <path d="M84.55 15.2 L89.15 14.95 87.4 28.45 86.75 27.65 88.3 15.8 85.4 15.95 84.55 15.2" fill="#f6f8b1" fill-rule="evenodd" stroke="none"/>
    <path d="M84.85 22.25 L83.45 19.4 83.3 17.45 84.15 19.15 84.85 22.25" fill="#f6f8b1" fill-rule="evenodd" stroke="none"/>
    <path d="M81.9 27.1 L83.4 23.35 83.55 25.7 82.5 27.9 81.9 27.1" fill="#f6f8b1" fill-rule="evenodd" stroke="none"/>
    <path d="M81.9 16.85 L82.55 19.25 82.25 22.1 81.2 17.65 78.9 17.7 77.9 16.95 81.9 16.85" fill="#f6f8b1" fill-rule="evenodd" stroke="none"/>
    <path d="M48.45 26.7 L48.75 23.35 49.25 25.35 49.15 27.5 48.45 26.7" fill="#f6f8b1" fill-rule="evenodd" stroke="none"/>
    <path d="M49.2 18.05 L53.2 17.7 52.6 26.5 51.95 25.65 52.35 18.55 50.0 18.75 49.2 18.05" fill="#f6f8b1" fill-rule="evenodd" stroke="none"/>
    <path d="M49.4 19.75 L49.95 22.7 48.9 20.5 47.0 20.3 47.0 19.5 49.4 19.75" fill="#f6f8b1" fill-rule="evenodd" stroke="none"/>
    <path d="M95.45 19.95 L94.5 16.85 94.4 11.8 95.35 12.5 95.45 19.95" fill="#d8901f" fill-rule="evenodd" stroke="none"/>
    <path d="M97.45 25.95 L98.05 26.8 94.8 26.8 93.75 24.9 93.2 21.6 95.45 25.95 97.45 25.95" fill="#d8901f" fill-rule="evenodd" stroke="none"/>
    <path d="M92.8 26.85 L93.5 27.65 89.4 27.8 89.95 15.45 90.85 16.25 90.35 26.95 92.8 26.85" fill="#d8901f" fill-rule="evenodd" stroke="none"/>
    <path d="M58.35 15.75 L62.35 15.9 63.1 16.75 59.15 16.6 58.35 15.75" fill="#d8901f" fill-rule="evenodd" stroke="none"/>
    <path d="M52.45 13.3 L52.45 15.55 51.6 16.4 51.6 12.65 52.45 13.3" fill="#d8901f" fill-rule="evenodd" stroke="none"/>
    <path d="M52.45 15.45 L55.95 15.65 54.95 16.55 51.6 16.3 52.45 15.45" fill="#d8901f" fill-rule="evenodd" stroke="none"/>
    <path d="M54.4 27.4 L58.3 27.9 59.15 28.85 53.4 28.1 54.4 27.4" fill="#d8901f" fill-rule="evenodd" stroke="none"/>
    <path d="M55.85 15.75 L54.4 27.45 53.4 28.15 54.9 16.6 55.85 15.75" fill="#d8901f" fill-rule="evenodd" stroke="none"/>
    <path d="M13.7 17.75 L19.35 16.25 21.8 32.55 27.4 30.6 28.7 31.2 21.15 33.8 18.7 17.45 13.15 18.95 11.05 10.7 12.15 11.65 13.7 17.75" fill="#d8901f" fill-rule="evenodd" stroke="none"/>
    <path d="M22.55 15.25 L25.7 14.3 26.9 14.95 23.85 15.9 22.55 15.25" fill="#d8901f" fill-rule="evenodd" stroke="none"/>
    <path d="M85.4 15.95 L84.8 22.25 84.1 19.2 84.55 15.2 85.4 15.95" fill="#d8901f" fill-rule="evenodd" stroke="none"/>
    <path d="M86.8 27.75 L87.45 28.55 84.6 28.6 83.5 25.7 83.35 23.35 85.2 27.85 86.8 27.75" fill="#d8901f" fill-rule="evenodd" stroke="none"/>
    <path d="M83.35 19.4 L82.2 22.05 82.5 19.2 83.2 17.45 83.35 19.4" fill="#d8901f" fill-rule="evenodd" stroke="none"/>
    <path d="M81.85 27.05 L82.45 27.85 79.4 27.8 77.9 17.0 78.9 17.8 80.2 27.0 81.85 27.05" fill="#d8901f" fill-rule="evenodd" stroke="none"/>
    <path d="M49.2 18.05 L50.0 18.75 49.9 22.7 49.2 18.05" fill="#d8901f" fill-rule="evenodd" stroke="none"/>
    <path d="M52.0 25.75 L52.7 26.65 50.1 26.55 49.3 25.35 48.8 23.35 50.6 25.8 52.0 25.75" fill="#d8901f" fill-rule="evenodd" stroke="none"/>
    <path d="M48.45 26.7 L49.15 27.5 44.75 27.35 45.0 25.55 45.9 24.2 45.6 26.6 48.45 26.7" fill="#d8901f" fill-rule="evenodd" stroke="none"/>
    <path d="M100.15 12.05 L97.45 26.0 95.35 26.0 93.15 21.6 92.75 26.9 90.3 26.95 90.8 16.3 93.3 16.35 95.35 19.95 95.25 12.55 100.15 12.05" fill="#f7f619" fill-rule="evenodd" stroke="none"/>
    <path d="M62.95 11.65 L62.4 15.85 58.4 15.7 58.35 27.9 54.45 27.4 55.9 15.7 52.4 15.55 52.4 13.3 62.95 11.65" fill="#f7f619" fill-rule="evenodd" stroke="none"/>
    <path d="M25.05 11.65 L25.7 14.3 22.55 15.25 27.55 30.6 21.9 32.5 19.5 16.2 13.8 17.75 12.25 11.6 25.05 11.65" fill="#f7f619" fill-rule="evenodd" stroke="none"/>
    <path d="M85.4 16.0 L88.3 15.85 86.75 27.7 85.15 27.75 83.3 23.3 81.8 27.0 80.15 26.95 78.85 17.75 81.2 17.7 82.2 22.1 83.35 19.45 84.75 22.3 85.4 16.0" fill="#f7f619" fill-rule="evenodd" stroke="none"/>
    <path d="M85.2 30.6 L85.65 32.45 85.7 30.4 86.7 30.3 86.4 33.6 85.15 33.75 84.7 31.9 84.55 33.75 83.65 33.85 83.6 30.75 85.2 30.6" fill="#f7f619" fill-rule="evenodd" stroke="none"/>
    <path d="M89.4 33.2 L87.4 33.4 87.55 30.1 88.75 30.0 88.45 32.7 89.45 32.65 89.4 33.2" fill="#f7f619" fill-rule="evenodd" stroke="none"/>
    <path d="M90.0 29.85 L91.2 29.75 90.9 33.05 89.9 33.15 90.0 29.85" fill="#f7f619" fill-rule="evenodd" stroke="none"/>
    <path d="M93.55 29.75 L94.0 31.6 94.05 29.55 95.05 29.45 94.75 32.75 93.5 32.9 93.05 31.0 92.9 32.9 92.0 33.0 91.95 29.9 93.55 29.75" fill="#f7f619" fill-rule="evenodd" stroke="none"/>
    <path d="M97.8 29.85 L96.7 29.95 96.6 30.7 97.6 30.6 97.45 31.2 96.55 31.3 96.5 32.0 97.55 31.9 97.4 32.45 95.45 32.65 95.65 29.4 97.95 29.15 97.8 29.85" fill="#f7f619" fill-rule="evenodd" stroke="none"/>
    <path d="M81.25 30.7 L80.8 30.1 80.35 31.25 80.2 32.85 80.35 33.7 80.7 34.5 81.05 33.9 81.45 32.75 81.55 31.45 81.25 30.7 M81.4 29.45 Q82.25 29.65 82.7 30.55 83.1 31.45 82.85 32.6 82.6 33.8 81.85 34.5 81.05 35.2 80.2 35.05 79.35 34.9 78.95 34.0 78.5 33.1 78.75 31.9 79.05 30.7 79.8 30.0 80.55 29.3 81.4 29.45" fill="#f7f619" fill-rule="evenodd" stroke="none"/>
    <path d="M45.95 24.15 L46.45 22.85 46.9 21.3 47.0 20.2 48.9 20.45 49.95 22.65 50.05 18.75 52.4 18.55 52.0 25.65 50.55 25.75 48.75 23.25 48.5 26.6 45.65 26.5 45.95 24.15" fill="#f7f619" fill-rule="evenodd" stroke="none"/>
    <path d="M39.9 21.75 Q39.65 20.65 39.85 19.35 40.2 17.35 41.3 16.2 42.35 15.0 43.7 15.15 44.55 15.3 45.15 16.05 45.75 16.75 46.0 17.9 46.25 19.0 46.05 20.3 45.7 22.3 44.6 23.5 43.55 24.65 42.2 24.5 41.35 24.35 40.7 23.65 40.15 22.9 39.9 21.75" fill="#666666" fill-rule="evenodd" stroke="none"/>
    <path d="M39.9 21.8 Q39.65 20.65 39.85 19.35 40.2 17.35 41.25 16.2 42.35 15.0 43.7 15.15 44.55 15.3 45.1 16.0 45.7 16.75 45.95 17.9 46.25 19.0 46.0 20.3 45.7 22.3 44.6 23.45 43.55 24.65 42.2 24.5 41.35 24.35 40.75 23.65 40.15 22.9 39.9 21.8" fill="#6a6a69" fill-rule="evenodd" stroke="none"/>
    <path d="M46.05 20.3 Q45.7 22.25 44.65 23.45 43.6 24.65 42.25 24.5 41.4 24.35 40.8 23.6 40.2 22.9 39.95 21.8 39.7 20.7 39.9 19.35 40.1 18.05 40.65 17.05 41.25 16.1 42.05 15.55 42.85 15.0 43.7 15.15 44.55 15.3 45.15 16.0 45.75 16.75 46.0 17.9 46.25 19.0 46.05 20.3" fill="#6d6d6d" fill-rule="evenodd" stroke="none"/>
    <path d="M46.05 20.25 Q45.7 22.2 44.65 23.45 43.6 24.6 42.25 24.45 41.4 24.35 40.85 23.6 40.25 22.9 40.0 21.8 39.7 20.7 39.9 19.4 40.1 18.1 40.65 17.1 41.25 16.1 42.05 15.55 42.85 15.0 43.7 15.15 44.55 15.3 45.15 16.0 45.75 16.75 45.95 17.85 46.25 18.95 46.05 20.25" fill="#717171" fill-rule="evenodd" stroke="none"/>
    <path d="M46.0 20.25 Q45.7 22.2 44.65 23.4 43.6 24.6 42.3 24.45 41.45 24.3 40.85 23.6 40.25 22.9 40.0 21.8 39.7 20.7 39.9 19.4 40.1 18.1 40.65 17.1 41.2 16.1 42.0 15.55 42.8 15.0 43.7 15.15 44.55 15.3 45.1 16.0 45.7 16.75 45.95 17.85 46.2 18.95 46.0 20.25" fill="#757575" fill-rule="evenodd" stroke="none"/>
    <path d="M46.0 20.2 Q45.7 22.15 44.65 23.4 43.6 24.55 42.3 24.45 41.45 24.3 40.85 23.6 40.25 22.9 40.0 21.8 39.7 20.7 39.9 19.4 40.1 18.1 40.65 17.1 41.2 16.1 42.0 15.55 42.8 15.0 43.7 15.15 44.5 15.3 45.1 16.0 45.7 16.7 45.95 17.85 46.2 18.95 46.0 20.2" fill="#797979" fill-rule="evenodd" stroke="none"/>
    <path d="M46.0 20.2 Q45.8 21.5 45.25 22.45 L43.95 24.0 Q43.15 24.5 42.3 24.4 41.45 24.3 40.85 23.6 40.25 22.9 40.0 21.8 39.75 20.75 39.9 19.45 40.1 18.15 40.65 17.1 41.2 16.1 42.0 15.55 42.8 15.0 43.65 15.15 44.5 15.3 45.05 16.0 45.65 16.7 45.9 17.85 46.2 18.9 46.0 20.2" fill="#7c7c7c" fill-rule="evenodd" stroke="none"/>
    <path d="M46.05 20.15 Q45.85 21.45 45.3 22.45 44.75 23.45 44.0 23.95 43.2 24.5 42.35 24.4 41.5 24.25 40.95 23.6 40.3 22.9 40.05 21.8 39.8 20.75 39.95 19.45 40.15 18.15 40.65 17.15 41.25 16.1 42.0 15.55 42.8 15.0 43.7 15.15 44.5 15.3 45.1 16.0 45.7 16.7 45.95 17.8 46.2 18.9 46.05 20.15" fill="#808080" fill-rule="evenodd" stroke="none"/>
    <path d="M46.0 20.15 Q45.85 21.45 45.3 22.4 L44.0 23.95 Q43.2 24.45 42.4 24.4 41.55 24.25 40.95 23.6 40.35 22.9 40.05 21.85 39.8 20.75 39.95 19.45 40.15 18.15 40.65 17.15 41.2 16.1 42.0 15.55 42.8 15.0 43.7 15.15 44.5 15.3 45.1 16.0 45.7 16.7 45.95 17.8 46.2 18.9 46.0 20.15" fill="#848484" fill-rule="evenodd" stroke="none"/>
    <path d="M46.0 20.15 L45.3 22.4 Q44.75 23.4 44.0 23.9 43.25 24.45 42.4 24.35 41.55 24.25 40.95 23.55 40.35 22.9 40.1 21.85 39.8 20.8 39.95 19.5 40.15 18.15 40.65 17.15 41.2 16.1 42.0 15.55 42.8 15.0 43.65 15.15 44.5 15.3 45.05 16.0 45.65 16.7 45.9 17.75 46.2 18.85 46.0 20.15" fill="#888888" fill-rule="evenodd" stroke="none"/>
    <path d="M46.05 20.1 L45.35 22.4 44.05 23.9 42.45 24.35 Q41.6 24.25 41.0 23.55 40.4 22.9 40.15 21.85 39.85 20.8 40.0 19.5 40.15 18.2 40.7 17.15 41.25 16.15 42.05 15.55 42.8 15.0 43.7 15.15 44.55 15.3 45.1 16.0 45.7 16.7 45.95 17.75 46.2 18.85 46.05 20.1" fill="#8b8b8b" fill-rule="evenodd" stroke="none"/>
    <path d="M40.5 22.8 Q39.8 21.45 40.0 19.55 40.15 18.2 40.7 17.15 41.25 16.15 42.0 15.55 42.8 15.0 43.7 15.15 44.9 15.4 45.6 16.75 46.25 18.15 46.0 20.1 45.85 21.35 45.35 22.35 L44.05 23.85 Q43.3 24.4 42.45 24.35 41.2 24.15 40.5 22.8" fill="#8f8e8f" fill-rule="evenodd" stroke="none"/>
    <path d="M40.5 22.8 Q39.8 21.5 40.0 19.55 40.15 18.2 40.7 17.2 41.2 16.15 42.0 15.55 42.8 15.0 43.7 15.15 44.9 15.4 45.55 16.75 46.25 18.15 46.0 20.05 45.85 21.3 45.35 22.3 L44.05 23.85 42.45 24.3 Q41.2 24.15 40.5 22.8" fill="#939392" fill-rule="evenodd" stroke="none"/>
    <path d="M40.5 22.8 Q39.8 21.5 40.0 19.55 40.15 18.25 40.65 17.2 41.2 16.15 42.0 15.55 42.75 15.0 43.65 15.15 44.85 15.4 45.55 16.75 46.2 18.1 46.0 20.05 L45.3 22.3 44.05 23.8 Q43.3 24.35 42.5 24.3 41.25 24.1 40.5 22.8" fill="#979797" fill-rule="evenodd" stroke="none"/>
    <path d="M40.55 22.8 Q39.8 21.5 40.0 19.6 40.15 18.25 40.65 17.2 41.2 16.15 41.95 15.6 42.75 15.0 43.65 15.15 44.85 15.4 45.5 16.75 46.15 18.1 45.95 20.0 45.8 21.25 45.3 22.25 L44.05 23.8 Q43.3 24.35 42.5 24.3 41.25 24.1 40.55 22.8" fill="#9a9a9a" fill-rule="evenodd" stroke="none"/>
    <path d="M40.55 22.8 Q39.85 21.5 40.0 19.6 40.15 18.25 40.65 17.2 41.2 16.15 41.95 15.6 42.75 15.0 43.65 15.15 44.85 15.4 45.5 16.75 46.15 18.1 45.95 20.0 45.8 21.25 45.3 22.2 44.8 23.25 44.05 23.75 43.35 24.35 42.5 24.25 41.25 24.1 40.55 22.8" fill="#9f9e9e" fill-rule="evenodd" stroke="none"/>
    <path d="M40.55 22.8 Q39.85 21.5 40.0 19.65 40.15 18.3 40.65 17.2 41.15 16.15 41.95 15.6 42.7 15.0 43.6 15.15 44.8 15.4 45.5 16.7 46.15 18.05 45.95 20.0 45.8 21.2 45.3 22.2 L44.05 23.75 Q43.35 24.3 42.5 24.25 41.25 24.1 40.55 22.8" fill="#a2a2a2" fill-rule="evenodd" stroke="none"/>
    <path d="M40.55 22.8 Q39.85 21.55 40.0 19.65 40.15 18.3 40.65 17.25 41.15 16.15 41.9 15.6 42.7 15.0 43.6 15.15 44.8 15.4 45.45 16.7 46.1 18.05 45.95 19.95 45.8 21.2 45.3 22.15 44.8 23.2 44.05 23.7 43.35 24.3 42.5 24.25 41.3 24.1 40.55 22.8" fill="#a5a4a5" fill-rule="evenodd" stroke="none"/>
    <path d="M40.6 22.8 Q39.85 21.55 40.0 19.65 40.15 18.3 40.6 17.25 41.15 16.15 41.9 15.6 42.7 15.0 43.6 15.15 44.75 15.4 45.45 16.7 46.1 18.05 45.9 19.95 45.75 21.15 45.25 22.15 L44.05 23.7 Q43.35 24.25 42.55 24.2 41.3 24.05 40.6 22.8" fill="#a9a9a9" fill-rule="evenodd" stroke="none"/>
    <path d="M40.6 22.8 Q39.85 21.55 40.0 19.7 40.1 18.35 40.6 17.25 41.1 16.2 41.9 15.6 42.65 15.0 43.6 15.15 44.75 15.4 45.45 16.7 46.1 18.0 45.9 19.9 45.75 21.15 45.25 22.1 44.8 23.1 44.05 23.7 43.35 24.25 42.55 24.2 41.3 24.05 40.6 22.8" fill="#adadad" fill-rule="evenodd" stroke="none"/>
    <path d="M40.8 22.8 Q40.05 21.55 40.2 19.7 40.3 18.35 40.8 17.25 41.3 16.2 42.1 15.6 42.8 15.0 43.75 15.15 44.95 15.4 45.6 16.7 46.25 18.0 46.1 19.9 45.95 21.1 45.45 22.1 L44.3 23.65 Q43.55 24.25 42.75 24.2 41.5 24.05 40.8 22.8" fill="#b1b1b1" fill-rule="evenodd" stroke="none"/>
    <path d="M40.8 22.8 Q40.1 21.55 40.2 19.7 40.3 18.35 40.8 17.25 41.3 16.2 42.05 15.6 42.8 15.0 43.75 15.15 44.9 15.4 45.6 16.7 46.25 18.0 46.05 19.85 45.95 21.1 45.45 22.05 L44.3 23.65 Q43.55 24.2 42.75 24.15 41.55 24.05 40.8 22.8" fill="#b4b4b4" fill-rule="evenodd" stroke="none"/>
    <path d="M40.8 22.8 Q40.1 21.6 40.2 19.75 40.3 18.35 40.8 17.3 41.3 16.2 42.05 15.6 42.8 15.0 43.7 15.15 44.9 15.4 45.55 16.65 46.2 17.95 46.05 19.85 45.95 21.05 45.45 22.05 L44.3 23.6 Q43.6 24.2 42.75 24.15 41.55 24.0 40.8 22.8" fill="#b8b8b8" fill-rule="evenodd" stroke="none"/>
    <path d="M40.85 22.8 Q40.1 21.6 40.2 19.75 40.3 18.4 40.75 17.3 41.25 16.2 42.05 15.6 42.75 15.0 43.7 15.15 44.85 15.4 45.55 16.65 46.2 17.95 46.05 19.85 L45.45 22.0 44.3 23.6 Q43.6 24.15 42.8 24.15 41.55 24.0 40.85 22.8" fill="#bcbcbc" fill-rule="evenodd" stroke="none"/>
    <path d="M40.85 22.8 Q40.1 21.6 40.2 19.8 40.3 18.4 40.75 17.3 41.25 16.2 42.0 15.6 42.75 15.0 43.7 15.15 44.85 15.4 45.5 16.65 46.2 17.95 46.05 19.8 L45.45 22.0 44.3 23.55 Q43.6 24.15 42.8 24.1 41.6 23.95 40.85 22.8" fill="#c0c0c0" fill-rule="evenodd" stroke="none"/>
    <path d="M40.85 22.8 Q40.1 21.6 40.2 19.8 40.3 18.4 40.75 17.3 41.25 16.2 42.0 15.6 42.75 15.0 43.65 15.15 44.8 15.4 45.5 16.65 46.15 17.9 46.0 19.8 45.9 21.0 45.45 21.95 L44.3 23.55 Q43.6 24.1 42.8 24.1 41.6 23.95 40.85 22.8" fill="#c2c2c3" fill-rule="evenodd" stroke="none"/>
    <path d="M40.85 22.8 Q40.1 21.6 40.2 19.8 40.3 18.45 40.75 17.35 41.25 16.2 42.0 15.6 42.7 15.0 43.65 15.15 44.8 15.4 45.45 16.65 46.15 17.9 46.0 19.75 45.9 20.95 45.4 21.95 45.0 22.95 44.3 23.5 43.6 24.1 42.8 24.05 41.6 23.95 40.85 22.8" fill="#c7c7c7" fill-rule="evenodd" stroke="none"/>
    <path d="M40.85 22.8 Q40.1 21.65 40.2 19.85 40.3 18.45 40.75 17.35 41.2 16.25 41.95 15.6 42.7 15.0 43.65 15.15 44.8 15.4 45.45 16.65 46.1 17.9 46.0 19.75 L45.4 21.9 Q45.0 22.9 44.3 23.5 43.6 24.1 42.8 24.05 41.6 23.95 40.85 22.8" fill="#cccbcb" fill-rule="evenodd" stroke="none"/>
    <path d="M41.0 22.8 Q40.25 21.65 40.3 19.85 40.4 18.45 40.85 17.35 41.3 16.25 42.05 15.6 42.8 15.0 43.75 15.15 44.85 15.4 45.5 16.6 46.2 17.85 46.05 19.7 45.95 20.9 45.5 21.9 L44.4 23.45 Q43.75 24.05 42.95 24.05 41.75 23.95 41.0 22.8" fill="#cecdce" fill-rule="evenodd" stroke="none"/>
    <path d="M41.0 22.8 Q40.25 21.65 40.3 19.85 40.35 18.5 40.8 17.35 41.3 16.25 42.0 15.6 42.75 15.0 43.7 15.15 44.85 15.4 45.5 16.6 46.2 17.85 46.05 19.7 L45.5 21.85 44.4 23.45 Q43.75 24.05 42.95 24.0 41.75 23.9 41.0 22.8" fill="#d3d2d2" fill-rule="evenodd" stroke="none"/>
    <path d="M41.0 22.8 Q40.25 21.65 40.3 19.9 40.35 18.5 40.8 17.35 41.25 16.25 42.0 15.6 42.75 15.0 43.7 15.15 44.8 15.4 45.5 16.6 46.15 17.85 46.05 19.7 L45.5 21.85 44.4 23.4 Q43.75 24.0 43.0 24.0 41.75 23.9 41.0 22.8" fill="#d6d5d5" fill-rule="evenodd" stroke="none"/>
    <path d="M41.0 22.8 Q40.25 21.65 40.3 19.9 40.35 18.5 40.8 17.4 41.25 16.25 42.0 15.6 42.75 15.0 43.7 15.15 44.8 15.4 45.45 16.6 46.15 17.85 46.05 19.65 L45.5 21.8 44.4 23.4 Q43.75 24.0 43.0 23.95 41.8 23.9 41.0 22.8" fill="#dad9d9" fill-rule="evenodd" stroke="none"/>
    <path d="M41.0 22.8 Q40.25 21.7 40.3 19.9 40.35 18.5 40.8 17.4 41.25 16.25 41.95 15.6 42.7 15.0 43.65 15.15 44.8 15.4 45.45 16.6 46.1 17.8 46.0 19.65 L45.5 21.8 44.4 23.4 Q43.75 23.95 43.0 23.95 41.8 23.9 41.0 22.8" fill="#dddddd" fill-rule="evenodd" stroke="none"/>
    <path d="M41.05 22.8 Q40.25 21.7 40.3 19.95 40.35 18.55 40.8 17.4 41.25 16.25 41.95 15.6 42.7 15.0 43.65 15.15 44.75 15.4 45.4 16.6 46.1 17.75 46.0 19.6 L45.5 21.75 44.4 23.35 Q43.75 23.95 43.0 23.95 41.8 23.85 41.05 22.8" fill="#e2e1e1" fill-rule="evenodd" stroke="none"/>
    <path d="M45.45 16.55 Q46.15 17.75 46.05 19.55 45.95 20.75 45.5 21.75 L44.45 23.35 Q43.8 23.9 43.05 23.9 41.85 23.85 41.1 22.8 40.35 21.7 40.35 19.95 40.4 18.55 40.8 17.4 41.25 16.25 42.0 15.6 42.75 15.0 43.7 15.15 44.75 15.4 45.45 16.55" fill="#e5e4e4" fill-rule="evenodd" stroke="none"/>
    <path d="M45.45 16.55 Q46.1 17.75 46.0 19.55 45.95 20.7 45.5 21.7 45.1 22.7 44.5 23.3 43.85 23.9 43.1 23.9 41.9 23.85 41.1 22.8 40.35 21.7 40.35 19.95 40.4 18.55 40.8 17.4 41.25 16.25 42.0 15.65 42.7 15.0 43.7 15.15 44.75 15.4 45.45 16.55" fill="#eaeae9" fill-rule="evenodd" stroke="none"/>
    <path d="M45.4 16.55 Q46.1 17.7 46.0 19.55 45.95 20.7 45.5 21.7 L44.5 23.3 Q43.85 23.85 43.1 23.9 41.9 23.85 41.1 22.8 40.35 21.7 40.35 20.0 40.4 18.6 40.8 17.45 41.2 16.3 41.95 15.65 42.7 15.0 43.65 15.15 44.7 15.4 45.4 16.55" fill="#ededed" fill-rule="evenodd" stroke="none"/>
    <path d="M45.4 16.55 Q46.05 17.7 46.0 19.5 L45.5 21.65 Q45.1 22.65 44.5 23.25 43.85 23.85 43.1 23.85 41.9 23.8 41.15 22.8 40.4 21.75 40.35 20.0 40.4 18.6 40.8 17.45 41.2 16.3 41.95 15.65 42.7 15.0 43.65 15.15 44.7 15.4 45.4 16.55" fill="#f1f0f0" fill-rule="evenodd" stroke="none"/>
    <path d="M45.35 16.55 Q46.05 17.7 46.0 19.5 L45.5 21.65 44.5 23.25 Q43.85 23.85 43.1 23.85 41.9 23.8 41.15 22.8 40.4 21.75 40.35 20.0 40.35 18.6 40.8 17.45 41.2 16.3 41.95 15.65 42.65 15.0 43.65 15.15 44.7 15.4 45.35 16.55" fill="#f5f4f4" fill-rule="evenodd" stroke="none"/>
    <path d="M45.45 16.55 Q46.15 17.65 46.05 19.45 46.0 20.65 45.6 21.6 45.2 22.6 44.6 23.2 43.95 23.8 43.2 23.85 42.05 23.8 41.25 22.8 40.5 21.75 40.45 20.05 40.45 18.65 40.85 17.45 41.25 16.3 42.0 15.65 42.75 14.95 43.7 15.15 44.75 15.4 45.45 16.55" fill="#f8f8f8" fill-rule="evenodd" stroke="none"/>
    <path d="M45.5 16.5 Q46.15 17.65 46.1 19.45 46.05 20.6 45.65 21.6 L44.65 23.2 Q44.0 23.8 43.3 23.8 42.1 23.8 41.3 22.8 40.55 21.75 40.5 20.05 40.5 18.65 40.9 17.5 41.3 16.3 42.05 15.65 42.8 14.95 43.75 15.15 44.8 15.4 45.5 16.5" fill="#fbfbfb" fill-rule="evenodd" stroke="none"/>
    <path d="M45.45 16.5 Q46.15 17.65 46.1 19.4 46.05 20.55 45.65 21.55 45.25 22.55 44.65 23.15 44.05 23.75 43.3 23.8 42.1 23.8 41.3 22.8 40.55 21.8 40.5 20.05 40.5 18.65 40.9 17.5 41.3 16.3 42.05 15.65 42.75 14.95 43.75 15.15 44.75 15.4 45.45 16.5" fill="#ffffff" fill-rule="evenodd" stroke="none"/>
    <path d="M37.05 9.95 L36.4 10.45 Q35.55 9.55 34.15 9.05 L31.25 8.8 Q29.75 9.05 28.5 10.5 L28.0 10.25 Q28.65 8.0 29.9 7.1 31.1 6.25 32.55 6.45 33.95 6.65 35.2 7.6 36.4 8.55 37.05 9.95" fill="#000000" fill-rule="evenodd" stroke="none"/>
    <path d="M40.0 12.8 Q40.45 11.65 41.45 11.15 L43.6 11.0 Q44.75 11.4 45.7 12.95 L45.1 13.25 Q44.05 12.45 42.85 12.3 41.7 12.15 40.55 13.1 L40.0 12.8" fill="#000000" fill-rule="evenodd" stroke="none"/>
    <path d="M32.75 19.0 Q33.8 18.9 34.4 19.3 35.1 19.7 35.45 20.1 L35.75 20.6 35.65 19.85 Q35.55 19.2 35.05 18.45 34.65 17.65 33.6 17.2 33.95 16.85 34.4 16.8 35.35 16.75 36.2 17.8 37.0 18.8 37.3 20.45 37.5 22.1 37.05 23.25 36.6 24.4 35.65 24.55 34.65 24.6 33.85 23.6 33.05 22.6 32.75 20.95 32.6 19.9 32.75 19.0" fill="#000000" fill-rule="evenodd" stroke="none"/>
    <path d="M44.95 18.45 Q45.35 19.15 45.3 20.15 45.25 21.15 44.75 21.8 44.3 22.45 43.65 22.45 42.95 22.4 42.55 21.7 42.15 21.0 42.2 20.0 42.25 19.35 42.45 18.85 43.05 18.95 43.45 19.2 L44.05 19.75 44.25 20.0 44.25 19.6 44.1 18.7 43.3 17.85 43.9 17.7 Q44.55 17.75 44.95 18.45" fill="#000000" fill-rule="evenodd" stroke="none"/>
    <path d="M72.1 6.45 L72.05 9.9 Q73.0 10.2 73.35 10.55 L73.95 11.15 76.7 10.2 Q77.3 11.2 77.5 12.5 77.7 13.9 77.4 15.4 L75.1 16.95 Q75.2 18.45 74.95 19.65 L76.65 20.45 76.4 22.1 75.8 24.25 75.1 26.25 74.35 27.45 72.15 26.7 71.75 27.55 71.3 28.3 72.3 30.6 70.9 32.85 Q70.05 33.8 69.2 34.15 L67.0 32.0 65.45 32.25 63.75 34.5 63.0 34.0 62.45 33.35 61.8 32.1 62.6 29.75 62.5 29.1 62.3 27.9 61.0 27.45 60.9 25.45 Q60.9 24.4 61.25 22.95 L62.6 22.75 Q62.95 21.0 63.5 19.85 L61.75 18.95 61.8 18.25 61.8 17.6 64.65 17.8 65.65 11.2 66.55 10.65 67.3 10.2 67.7 7.65 Q68.45 7.25 69.3 7.05 L70.9 6.65 72.1 6.45" fill="#ffffff" fill-rule="evenodd" stroke="none"/>
    <path d="M76.65 10.05 L76.9 10.45 65.2 13.8 65.55 11.45 72.0 9.6 72.0 9.8 Q72.95 10.05 73.35 10.4 L73.95 11.0 76.65 10.05" fill="#a6a6a6" fill-rule="evenodd" stroke="none"/>
    <path d="M71.25 28.35 L72.05 30.2 62.15 33.0 61.75 32.15 62.15 30.95 71.25 28.35" fill="#a6a6a6" fill-rule="evenodd" stroke="none"/>
    <path d="M77.1 11.15 L77.5 13.05 64.75 16.6 65.05 14.5 77.1 11.15" fill="#a6a6a6" fill-rule="evenodd" stroke="none"/>
    <path d="M76.55 21.15 L76.0 23.6 75.1 26.1 72.55 26.8 72.1 26.7 71.95 26.95 62.55 29.6 62.4 28.85 62.25 27.85 60.95 27.4 60.85 25.5 76.55 21.15" fill="#a6a6a6" fill-rule="evenodd" stroke="none"/>
    <path d="M74.95 19.5 L75.95 20.0 60.95 24.25 61.2 22.8 62.6 22.6 62.75 21.9 75.1 18.4 74.95 19.5" fill="#a6a6a6" fill-rule="evenodd" stroke="none"/>
    <path d="M71.4 18.8 Q71.5 20.0 71.2 21.35 L70.25 23.75 Q69.65 24.8 68.85 25.25 L67.3 25.5 Q66.5 25.25 66.05 24.45 65.6 23.65 65.5 22.45 65.4 21.25 65.75 19.85 66.05 18.55 66.65 17.5 67.25 16.45 68.05 16.0 68.85 15.55 69.6 15.75 70.4 16.0 70.85 16.8 71.3 17.6 71.4 18.8" fill="#000000" fill-rule="evenodd" stroke="none"/>
    <path d="M69.5 27.35 Q70.7 26.5 71.6 24.8 L71.8 24.9 Q71.1 27.2 69.95 28.35 68.85 29.4 67.75 29.7 L66.1 29.8 66.4 30.15 67.3 30.55 68.8 30.5 68.85 30.7 Q67.4 31.55 66.1 31.05 64.8 30.55 64.1 28.75 63.35 26.95 63.6 23.95 L63.9 23.75 Q64.2 25.85 65.1 26.9 66.0 28.0 67.2 28.05 68.35 28.15 69.5 27.35" fill="#000000" fill-rule="evenodd" stroke="none"/>
    <path d="M72.45 15.6 Q71.95 14.45 71.15 13.7 70.3 12.9 69.3 12.8 68.3 12.7 67.15 13.6 L67.05 13.3 Q67.75 12.2 68.85 11.75 L71.0 11.65 Q72.1 12.05 72.75 13.55 73.4 15.0 73.2 17.8 L73.0 17.95 Q72.95 16.75 72.45 15.6" fill="#000000" fill-rule="evenodd" stroke="none"/>
    <path d="M70.3 21.1 L69.7 22.65 68.95 23.85 Q68.55 22.45 69.0 20.5 69.4 18.75 70.25 17.7 L70.5 19.2 70.3 21.1" fill="#f6200f" fill-rule="evenodd" stroke="none"/>
    <path d="M68.45 20.7 L68.35 21.15 68.2 22.15 65.95 22.4 65.9 21.8 Q65.85 21.15 66.25 19.7 L68.45 20.7" fill="#a6a6a6" fill-rule="evenodd" stroke="none"/>
    <path d="M66.5 18.95 L66.8 18.3 68.7 19.75 68.6 20.15 66.5 18.95" fill="#a6a6a6" fill-rule="evenodd" stroke="none"/>
    <path d="M76.9 24.95 L78.35 25.75 77.75 28.05 77.4 28.75 75.65 27.9 76.3 26.8 76.75 25.55 76.9 24.95" fill="#a6a6a6" fill-rule="evenodd" stroke="none"/>
    <path d="M72.4 28.95 L75.5 30.45 75.55 31.7 73.1 30.6 72.4 28.95" fill="#a6a6a6" fill-rule="evenodd" stroke="none"/>
    <path d="M65.8 33.35 L67.15 33.7 67.1 34.8 64.75 35.3 65.8 33.35" fill="#a6a6a6" fill-rule="evenodd" stroke="none"/>
    <path d="M81.2 10.65 L79.0 9.7 78.85 8.85 78.75 8.55 79.3 8.8 80.3 9.25 80.8 9.5 81.2 10.65" fill="#a6a6a6" fill-rule="evenodd" stroke="none"/>
    <path d="M79.15 11.15 L81.4 11.75 81.55 13.95 81.5 14.9 79.2 14.5 79.25 12.8 79.15 11.15" fill="#a6a6a6" fill-rule="evenodd" stroke="none"/>
    <path d="M76.0 7.7 L73.1 6.1 73.25 5.0 76.15 7.05 76.0 7.7" fill="#a6a6a6" fill-rule="evenodd" stroke="none"/>
    <path d="M72.8 9.0 L73.0 6.95 75.9 8.5 73.35 9.25 72.8 9.0" fill="#a6a6a6" fill-rule="evenodd" stroke="none"/>
    <path d="M91.0 42.65 L92.6 46.55 85.7 50.1 83.6 46.05 83.4 47.5 83.3 48.15 78.25 47.2 78.35 46.8 78.55 46.05 78.65 45.55 78.3 45.65 78.15 45.7 78.1 45.65 77.6 47.6 72.75 46.6 72.9 46.25 73.2 45.45 73.5 44.6 69.0 46.65 67.9 44.65 67.8 45.8 67.75 46.3 67.2 46.25 66.0 46.2 64.75 46.15 64.1 46.15 64.05 46.25 63.9 46.15 63.85 46.15 63.85 46.1 63.1 45.4 61.7 44.2 61.55 44.35 61.45 44.4 61.35 44.45 61.2 44.5 61.1 44.55 61.05 44.55 60.95 44.6 60.85 44.6 60.7 44.65 60.65 44.65 60.55 44.65 60.35 44.65 60.15 44.65 Q59.2 44.55 58.6 43.9 L58.35 43.5 56.05 45.8 53.45 42.8 52.55 45.9 48.35 45.1 48.45 44.8 48.65 44.15 48.75 43.8 48.2 43.85 47.45 43.85 47.35 45.7 42.8 45.2 42.8 44.85 42.85 43.95 42.95 42.85 38.75 47.8 35.6 44.6 35.55 47.9 31.55 48.5 31.55 48.35 31.55 47.95 31.05 48.1 30.45 48.35 30.1 48.45 30.0 48.15 26.35 50.35 20.55 37.65 27.55 36.15 27.75 36.85 28.1 38.3 28.4 39.65 29.25 39.45 30.2 39.2 30.7 39.1 31.45 42.45 32.4 42.15 32.25 40.45 34.45 40.2 33.5 39.05 37.85 36.55 39.8 39.95 39.9 39.85 40.3 39.6 40.55 34.05 47.85 34.55 47.8 35.7 52.55 35.9 52.5 36.35 52.45 37.4 52.4 38.3 52.85 38.3 55.6 36.25 57.2 38.7 58.5 37.7 60.35 40.25 60.55 40.3 60.6 40.3 60.3 36.75 60.9 36.85 62.15 37.05 63.35 37.25 63.3 36.5 63.3 36.2 63.2 34.85 68.75 35.6 68.7 36.1 68.6 37.15 68.5 38.1 68.75 38.15 69.2 38.2 69.45 38.25 69.4 39.0 70.85 38.35 71.85 41.1 72.15 41.0 72.1 39.6 72.95 39.7 73.0 36.45 79.05 37.75 78.75 40.45 79.5 40.55 79.35 41.0 84.4 39.1 85.0 40.7 87.95 39.7 89.3 43.25 91.0 42.65 M83.7 45.25 L85.15 44.7 84.55 43.65 83.85 43.85 83.7 45.25" fill="#000000" fill-rule="evenodd" stroke="none"/>
    <path d="M60.4 41.4 Q60.9 41.45 61.2 41.8 L61.45 42.6 61.05 43.35 60.25 43.6 Q59.75 43.55 59.45 43.2 59.15 42.85 59.2 42.4 59.25 41.95 59.6 41.65 59.95 41.35 60.4 41.4" fill="#f6f5c1" fill-rule="evenodd" stroke="none"/>
    <path d="M60.9 43.45 L60.25 43.6 Q59.75 43.55 59.45 43.2 59.15 42.85 59.2 42.4 L60.45 42.35 60.9 43.45" fill="#f79710" fill-rule="evenodd" stroke="none"/>
    <path d="M60.4 41.7 Q60.7 41.75 60.9 41.95 L61.05 42.45 60.8 42.95 60.3 43.1 59.8 42.85 59.65 42.3 59.9 41.85 60.4 41.7" fill="#f3f31d" fill-rule="evenodd" stroke="none"/>
    <path d="M30.5 43.4 L28.45 44.25 29.35 47.3 26.8 48.8 22.1 38.5 26.7 37.5 27.55 41.0 29.8 40.5 30.5 43.4" fill="#f3f31d" fill-rule="evenodd" stroke="none"/>
    <path d="M22.1 38.4 L23.4 39.1 27.1 47.4 28.5 46.8 29.35 47.2 26.8 48.7 22.1 38.4" fill="#f79710" fill-rule="evenodd" stroke="none"/>
    <path d="M27.55 41.0 L29.8 40.5 30.5 43.4 29.9 43.1 29.4 41.35 26.95 42.0 26.05 38.75 23.4 39.15 22.1 38.5 26.7 37.5 27.55 41.0" fill="#f6f5c1" fill-rule="evenodd" stroke="none"/>
    <path d="M29.9 43.1 L30.55 43.4 28.45 44.25 27.75 43.9 29.9 43.1" fill="#f79710" fill-rule="evenodd" stroke="none"/>
    <path d="M28.5 46.85 L27.75 43.9 28.45 44.25 29.35 47.25 28.5 46.85" fill="#f6f5c1" fill-rule="evenodd" stroke="none"/>
    <path d="M32.85 43.15 L33.0 44.45 34.45 43.95 34.35 46.95 32.55 47.2 32.55 45.65 31.75 45.85 32.0 46.55 30.65 47.05 29.95 45.45 31.25 45.0 30.8 43.75 32.85 43.15" fill="#f3f31d" fill-rule="evenodd" stroke="none"/>
    <path d="M32.0 46.55 L30.65 47.0 29.95 45.4 30.5 45.55 30.85 46.55 31.55 46.35 32.0 46.55" fill="#f79710" fill-rule="evenodd" stroke="none"/>
    <path d="M30.9 43.75 L32.95 43.15 33.05 44.45 34.5 43.95 33.95 44.55 32.7 44.9 32.6 43.7 31.45 44.0 30.9 43.75" fill="#f6f5c1" fill-rule="evenodd" stroke="none"/>
    <path d="M30.5 45.55 L29.95 45.45 31.25 45.0 31.6 45.2 30.5 45.55" fill="#f6f5c1" fill-rule="evenodd" stroke="none"/>
    <path d="M31.3 45.0 L30.9 43.75 31.45 44.05 31.7 45.15 31.3 45.0" fill="#f79710" fill-rule="evenodd" stroke="none"/>
    <path d="M34.5 46.95 L32.7 47.25 32.65 45.7 31.9 45.85 31.45 45.75 33.05 45.35 33.15 46.75 34.05 46.6 34.5 46.95" fill="#f79710" fill-rule="evenodd" stroke="none"/>
    <path d="M34.0 44.5 L34.55 43.95 34.5 46.9 34.05 46.55 34.0 44.5" fill="#f6f5c1" fill-rule="evenodd" stroke="none"/>
    <path d="M33.4 41.4 L36.05 41.1 36.2 42.8 33.6 43.35 33.4 41.4" fill="#f3f31d" fill-rule="evenodd" stroke="none"/>
    <path d="M36.2 42.8 L33.6 43.4 33.4 41.4 33.95 41.7 34.1 42.8 35.7 42.5 36.2 42.8" fill="#f79710" fill-rule="evenodd" stroke="none"/>
    <path d="M33.95 41.7 L33.4 41.4 36.05 41.1 36.2 42.8 35.7 42.5 35.6 41.55 33.95 41.7" fill="#f6f5c1" fill-rule="evenodd" stroke="none"/>
    <path d="M38.85 40.65 L37.3 41.9 35.2 39.4 37.4 38.1 38.85 40.65" fill="#f3f31d" fill-rule="evenodd" stroke="none"/>
    <path d="M36.4 43.85 L40.55 40.8 41.85 42.45 38.7 46.2 36.4 43.85" fill="#f3f31d" fill-rule="evenodd" stroke="none"/>
    <path d="M35.2 39.4 L37.4 38.1 38.85 40.65 38.2 40.55 37.25 38.85 36.0 39.55 35.2 39.4" fill="#f6f5c1" fill-rule="evenodd" stroke="none"/>
    <path d="M36.0 39.55 L37.45 41.15 38.2 40.55 38.85 40.65 37.3 41.85 35.2 39.4 36.0 39.55" fill="#f79710" fill-rule="evenodd" stroke="none"/>
    <path d="M36.4 43.85 L40.55 40.8 41.85 42.45 41.2 42.45 40.5 41.65 37.5 43.9 36.4 43.85" fill="#f6f5c1" fill-rule="evenodd" stroke="none"/>
    <path d="M37.5 43.85 L38.7 45.35 41.2 42.4 41.85 42.45 38.7 46.15 36.4 43.8 37.5 43.85" fill="#f79710" fill-rule="evenodd" stroke="none"/>
    <path d="M43.5 38.8 L44.5 38.95 44.55 37.85 43.55 37.65 43.5 38.8 M44.3 40.65 L43.55 40.4 43.55 41.15 41.45 40.75 41.7 35.2 46.8 35.55 46.4 44.45 44.05 44.2 44.3 40.65" fill="#f3f31d" fill-rule="evenodd" stroke="none"/>
    <path d="M43.55 41.15 L41.45 40.75 41.7 35.2 42.3 35.9 42.1 40.3 43.25 40.55 43.55 41.15" fill="#f79710" fill-rule="evenodd" stroke="none"/>
    <path d="M43.45 37.7 L43.15 37.05 45.1 37.35 44.95 39.55 44.4 39.0 44.5 37.85 43.45 37.7" fill="#f79710" fill-rule="evenodd" stroke="none"/>
    <path d="M43.45 40.45 L43.15 40.0 44.6 40.2 44.4 43.6 45.85 43.75 46.25 44.45 43.9 44.2 44.15 40.65 43.45 40.45" fill="#f79710" fill-rule="evenodd" stroke="none"/>
    <path d="M43.2 40.0 L43.45 40.45 43.45 41.2 43.15 40.55 43.2 40.0" fill="#f6f5c1" fill-rule="evenodd" stroke="none"/>
    <path d="M45.0 39.55 L43.1 39.25 43.2 37.05 43.5 37.7 43.45 38.8 44.45 39.0 45.0 39.55" fill="#f6f5c1" fill-rule="evenodd" stroke="none"/>
    <path d="M42.2 35.9 L41.6 35.2 46.7 35.55 46.3 44.45 45.85 43.75 46.2 36.3 42.2 35.9" fill="#f6f5c1" fill-rule="evenodd" stroke="none"/>
    <path d="M51.4 36.9 L51.3 39.4 53.35 39.35 51.8 44.55 49.85 44.2 50.75 41.4 49.35 41.4 49.4 42.65 47.4 42.65 47.3 39.45 49.0 39.35 48.85 36.8 51.4 36.9" fill="#f3f31d" fill-rule="evenodd" stroke="none"/>
    <path d="M48.9 36.8 L49.6 37.5 49.65 39.95 49.05 39.35 48.9 36.8" fill="#f79710" fill-rule="evenodd" stroke="none"/>
    <path d="M49.6 39.95 L47.85 39.95 47.3 39.45 49.0 39.4 49.6 39.95" fill="#f6f5c1" fill-rule="evenodd" stroke="none"/>
    <path d="M47.85 40.0 L47.85 42.05 48.85 42.05 49.4 42.7 47.4 42.75 47.3 39.5 47.85 40.0" fill="#f79710" fill-rule="evenodd" stroke="none"/>
    <path d="M48.85 42.05 L48.8 41.0 49.3 41.45 49.4 42.65 48.85 42.05" fill="#f6f5c1" fill-rule="evenodd" stroke="none"/>
    <path d="M48.8 41.1 L51.4 41.0 50.7 43.7 51.55 43.9 51.8 44.7 49.85 44.3 50.75 41.5 49.3 41.55 48.8 41.1" fill="#f79710" fill-rule="evenodd" stroke="none"/>
    <path d="M53.4 39.35 L51.85 44.55 51.6 43.75 52.7 39.9 50.9 39.95 51.0 37.5 49.6 37.5 48.9 36.8 51.45 36.9 51.3 39.4 53.4 39.35" fill="#f6f5c1" fill-rule="evenodd" stroke="none"/>
    <path d="M56.6 39.95 L55.15 40.95 53.55 39.1 55.25 37.85 56.6 39.95" fill="#f3f31d" fill-rule="evenodd" stroke="none"/>
    <path d="M54.35 42.3 L58.25 39.3 59.4 40.9 56.0 44.2 54.35 42.3" fill="#f3f31d" fill-rule="evenodd" stroke="none"/>
    <path d="M53.55 39.1 L54.5 39.35 55.25 40.25 55.95 39.75 56.6 39.9 55.15 40.95 53.55 39.1" fill="#f79710" fill-rule="evenodd" stroke="none"/>
    <path d="M54.5 39.35 L53.55 39.1 55.25 37.85 56.6 39.95 55.95 39.75 55.15 38.75 54.5 39.35" fill="#f6f5c1" fill-rule="evenodd" stroke="none"/>
    <path d="M54.35 42.25 L55.3 42.35 56.05 43.25 58.7 40.7 59.4 40.85 56.0 44.15 54.35 42.25" fill="#f79710" fill-rule="evenodd" stroke="none"/>
    <path d="M55.3 42.4 L54.35 42.3 58.25 39.3 59.4 40.9 58.7 40.75 58.25 40.05 55.3 42.4" fill="#f6f5c1" fill-rule="evenodd" stroke="none"/>
    <path d="M68.25 39.2 L68.15 41.05 67.05 41.05 66.65 45.15 64.85 45.1 64.75 43.2 63.75 44.6 61.9 42.95 64.0 41.05 61.7 41.05 61.45 38.1 64.45 38.6 64.35 36.15 67.45 36.55 67.25 39.05 68.25 39.2" fill="#f3f31d" fill-rule="evenodd" stroke="none"/>
    <path d="M61.45 38.1 L62.25 38.8 62.3 40.5 64.6 40.55 64.0 41.1 61.7 41.05 61.45 38.1" fill="#f79710" fill-rule="evenodd" stroke="none"/>
    <path d="M66.65 45.1 L64.8 45.0 64.7 43.15 63.75 44.55 61.85 42.85 62.6 42.85 63.7 43.9 65.0 42.2 65.15 44.5 66.4 44.5 66.65 45.1" fill="#f79710" fill-rule="evenodd" stroke="none"/>
    <path d="M64.55 40.45 L65.0 40.45 62.6 42.85 61.85 42.85 64.55 40.45" fill="#f6f5c1" fill-rule="evenodd" stroke="none"/>
    <path d="M64.45 38.6 L64.8 39.1 62.25 38.8 61.45 38.1 64.45 38.6" fill="#f6f5c1" fill-rule="evenodd" stroke="none"/>
    <path d="M64.85 36.7 L64.9 39.1 64.55 38.6 64.4 36.15 64.85 36.7" fill="#f79710" fill-rule="evenodd" stroke="none"/>
    <path d="M67.35 39.05 L68.3 39.2 68.2 41.05 67.9 40.65 68.0 39.55 66.9 39.4 67.05 37.0 64.85 36.7 64.4 36.15 67.55 36.55 67.35 39.05" fill="#f6f5c1" fill-rule="evenodd" stroke="none"/>
    <path d="M66.8 40.65 L67.1 41.1 66.7 45.2 66.45 44.6 66.8 40.65" fill="#f6f5c1" fill-rule="evenodd" stroke="none"/>
    <path d="M70.9 42.0 L69.45 42.6 68.35 40.7 70.15 39.9 70.9 42.0" fill="#f3f31d" fill-rule="evenodd" stroke="none"/>
    <path d="M68.45 43.5 L72.15 42.15 72.8 43.7 69.45 45.2 68.45 43.5" fill="#f3f31d" fill-rule="evenodd" stroke="none"/>
    <path d="M68.35 40.7 L70.15 39.9 70.9 42.0 70.45 41.75 70.0 40.5 68.95 41.0 68.35 40.7" fill="#f6f5c1" fill-rule="evenodd" stroke="none"/>
    <path d="M68.35 40.65 L68.95 40.95 69.55 42.05 70.45 41.65 70.9 41.95 69.45 42.55 68.35 40.65" fill="#f79710" fill-rule="evenodd" stroke="none"/>
    <path d="M68.45 43.55 L69.25 43.7 69.7 44.6 72.3 43.5 72.8 43.75 69.45 45.25 68.45 43.55" fill="#f79710" fill-rule="evenodd" stroke="none"/>
    <path d="M68.45 43.5 L72.15 42.15 72.8 43.7 72.3 43.45 71.9 42.65 69.25 43.65 68.45 43.5" fill="#f6f5c1" fill-rule="evenodd" stroke="none"/>
    <path d="M77.85 38.65 L77.65 40.6 74.05 40.15 74.1 37.85 77.85 38.65" fill="#f3f31d" fill-rule="evenodd" stroke="none"/>
    <path d="M73.35 43.15 L73.25 40.9 78.1 41.5 76.85 46.35 74.3 45.8 75.25 43.3 73.35 43.15" fill="#f3f31d" fill-rule="evenodd" stroke="none"/>
    <path d="M73.25 40.9 L78.1 41.5 76.85 46.35 76.55 45.55 77.55 41.95 73.8 41.5 73.25 40.9" fill="#f6f5c1" fill-rule="evenodd" stroke="none"/>
    <path d="M74.05 37.85 L77.8 38.65 77.6 40.6 77.25 40.2 77.35 39.05 74.5 38.5 74.05 37.85" fill="#f6f5c1" fill-rule="evenodd" stroke="none"/>
    <path d="M74.1 37.85 L74.5 38.5 74.5 39.75 77.25 40.2 77.65 40.6 74.05 40.15 74.1 37.85" fill="#f79710" fill-rule="evenodd" stroke="none"/>
    <path d="M73.25 40.9 L73.8 41.5 73.75 42.75 75.8 43.0 75.0 45.25 76.55 45.55 76.85 46.35 74.3 45.8 75.25 43.3 73.35 43.15 73.25 40.9" fill="#f79710" fill-rule="evenodd" stroke="none"/>
    <path d="M83.75 40.45 L84.5 42.4 82.85 42.95 82.35 46.8 79.6 46.25 80.15 43.9 78.85 44.3 78.25 42.55 83.75 40.45" fill="#f3f31d" fill-rule="evenodd" stroke="none"/>
    <path d="M84.5 42.45 L82.8 42.95 82.5 42.75 83.85 42.2 84.5 42.45" fill="#f79710" fill-rule="evenodd" stroke="none"/>
    <path d="M78.25 42.55 L83.75 40.45 84.5 42.4 83.9 42.2 83.4 41.1 78.9 42.8 78.25 42.55" fill="#f6f5c1" fill-rule="evenodd" stroke="none"/>
    <path d="M82.55 42.85 L82.85 43.05 82.35 46.9 82.05 46.3 82.55 42.85" fill="#f6f5c1" fill-rule="evenodd" stroke="none"/>
    <path d="M79.2 43.85 L80.65 43.5 80.15 46.0 82.05 46.35 82.35 46.9 79.6 46.4 80.15 44.05 78.85 44.4 78.25 42.7 78.9 42.95 79.2 43.85" fill="#f79710" fill-rule="evenodd" stroke="none"/>
    <path d="M88.35 43.8 L86.4 44.55 84.85 41.95 87.3 41.1 88.35 43.8" fill="#f3f31d" fill-rule="evenodd" stroke="none"/>
    <path d="M90.4 44.1 L91.2 46.05 86.2 48.65 84.85 46.05 90.4 44.1" fill="#f3f31d" fill-rule="evenodd" stroke="none"/>
    <path d="M84.85 41.95 L87.3 41.1 88.35 43.8 87.8 43.55 87.1 41.7 85.6 42.25 84.85 41.95" fill="#f6f5c1" fill-rule="evenodd" stroke="none"/>
    <path d="M87.8 43.55 L88.35 43.8 86.4 44.5 84.85 41.9 85.6 42.2 86.5 44.05 87.8 43.55" fill="#f79710" fill-rule="evenodd" stroke="none"/>
    <path d="M84.85 46.05 L85.85 46.45 86.5 47.8 90.6 45.8 91.2 46.05 86.2 48.65 84.85 46.05" fill="#f79710" fill-rule="evenodd" stroke="none"/>
    <path d="M84.85 46.05 L90.4 44.1 91.2 46.05 90.6 45.8 90.1 44.75 85.85 46.5 84.85 46.05" fill="#f6f5c1" fill-rule="evenodd" stroke="none"/>
    <path d="M107.75 4.5 L107.95 4.65 108.0 4.9 107.9 5.15 107.7 5.35 107.35 5.4 106.9 5.25 106.7 4.85 107.0 4.85 107.15 5.05 107.35 5.1 107.6 5.05 107.7 4.9 107.65 4.8 107.5 4.75 107.25 4.7 106.9 4.5 106.75 4.2 106.85 3.95 107.05 3.8 107.35 3.75 107.8 3.9 107.95 4.25 107.65 4.25 107.5 4.05 107.35 4.0 107.1 4.1 107.05 4.15 107.1 4.25 107.4 4.35 107.75 4.5" fill="#000000" fill-rule="evenodd" stroke="none"/>
    <path d="M109.25 3.8 L109.75 3.8 109.75 5.4 109.45 5.4 109.45 4.15 109.15 5.4 108.8 5.4 108.5 4.15 108.5 5.4 108.2 5.4 108.2 3.8 108.7 3.8 108.95 4.9 109.25 3.8" fill="#000000" fill-rule="evenodd" stroke="none"/>
  </g>
</svg>
