<?xml version="1.0" encoding="UTF-8" standalone="no"?>
<svg xmlns:xlink="http://www.w3.org/1999/xlink" height="57.0px" width="182.35px" xmlns="http://www.w3.org/2000/svg">
  <g transform="matrix(1.0, 0.0, 0.0, 1.0, 0.0, -0.05)">
    <path d="M85.65 24.45 L92.9 21.0 Q97.95 18.55 101.65 23.3 102.55 24.4 102.5 24.95 L101.35 28.25 Q100.25 31.25 99.0 33.3 L182.35 33.6 17.6 57.05 14.85 56.75 Q11.6 56.3 8.85 55.4 0.1 52.65 0.0 47.0 -0.05 41.35 3.9 37.45 5.05 36.3 6.6 35.3 L7.8 34.65 6.05 32.9 Q4.05 30.75 2.85 28.55 -1.0 21.75 5.2 17.85 9.1 15.3 10.65 12.2 11.8 9.85 16.85 8.05 39.45 -0.05 53.15 0.05 66.5 0.15 68.5 7.9 68.95 9.95 68.0 12.8 67.0 15.55 65.7 16.4 L70.65 14.8 Q74.35 13.4 75.4 13.2 L82.25 12.65 Q84.1 12.9 85.65 14.25 89.05 17.25 87.35 20.9 L86.65 22.85 Q86.25 23.95 85.65 24.45" fill="#999999" fill-rule="evenodd" stroke="none"/>
  </g>
</svg>
