<?xml version="1.0" encoding="UTF-8" standalone="no"?>
<svg xmlns:xlink="http://www.w3.org/1999/xlink" height="58.3px" width="153.05px" xmlns="http://www.w3.org/2000/svg">
  <g transform="matrix(1.0, 0.0, 0.0, 1.0, 0.0, 0.05)">
    <path d="M0.0 3.5 L153.05 -0.05 130.05 58.25 11.5 58.25 0.0 3.5" fill="#333333" fill-rule="evenodd" stroke="none"/>
    <path d="M127.95 55.1 L12.95 55.1 2.95 6.1 148.95 3.1 127.95 55.1" fill="url(#gradient0)" fill-rule="evenodd" stroke="none"/>
    <path d="M148.95 3.1 L142.7 9.35 7.95 11.1 2.95 6.1 148.95 3.1" fill="url(#gradient1)" fill-rule="evenodd" stroke="none"/>
    <path d="M7.95 11.1 L17.45 50.6 12.95 55.1 2.95 6.1 7.95 11.1" fill="url(#gradient2)" fill-rule="evenodd" stroke="none"/>
    <path d="M127.95 55.1 L12.95 55.1 17.45 50.6 123.45 50.6 127.95 55.1" fill="url(#gradient3)" fill-rule="evenodd" stroke="none"/>
    <path d="M148.95 3.1 L127.95 55.1 123.45 50.6 142.7 9.35 148.95 3.1" fill="url(#gradient4)" fill-rule="evenodd" stroke="none"/>
    <path d="M131.45 13.55 L119.4 46.35 21.5 47.5 15.5 15.85 131.45 13.55" fill="#ff0000" fill-opacity="0.3019608" fill-rule="evenodd" stroke="none"/>
  </g>
  <defs>
    <linearGradient gradientTransform="matrix(0.0, 0.0317, -0.0317, 0.0, 75.95, 29.1)" gradientUnits="userSpaceOnUse" id="gradient0" spreadMethod="pad" x1="-819.2" x2="819.2">
      <stop offset="0.0" stop-color="#a2a723"/>
      <stop offset="0.0" stop-color="#ff6f00"/>
      <stop offset="1.0" stop-color="#ffe17c"/>
    </linearGradient>
    <linearGradient gradientTransform="matrix(0.0, -0.0049, 0.0049, 0.0, 75.95, 7.1)" gradientUnits="userSpaceOnUse" id="gradient1" spreadMethod="pad" x1="-819.2" x2="819.2">
      <stop offset="0.0" stop-color="#a2a723"/>
      <stop offset="0.0" stop-color="#ff6f00"/>
      <stop offset="1.0" stop-color="#ffe17c"/>
    </linearGradient>
    <linearGradient gradientTransform="matrix(0.0, -0.0299, 0.0299, 0.0, 10.2, 30.6)" gradientUnits="userSpaceOnUse" id="gradient2" spreadMethod="pad" x1="-819.2" x2="819.2">
      <stop offset="0.0" stop-color="#a2a723"/>
      <stop offset="0.0" stop-color="#ff6f00"/>
      <stop offset="1.0" stop-color="#ffe17c"/>
    </linearGradient>
    <linearGradient gradientTransform="matrix(0.0, -0.0027, 0.0027, 0.0, 70.45, 52.85)" gradientUnits="userSpaceOnUse" id="gradient3" spreadMethod="pad" x1="-819.2" x2="819.2">
      <stop offset="0.0" stop-color="#a2a723"/>
      <stop offset="0.0" stop-color="#ff6f00"/>
      <stop offset="1.0" stop-color="#ffe17c"/>
    </linearGradient>
    <linearGradient gradientTransform="matrix(0.0, -0.0317, 0.0317, 0.0, 136.2, 29.1)" gradientUnits="userSpaceOnUse" id="gradient4" spreadMethod="pad" x1="-819.2" x2="819.2">
      <stop offset="0.0" stop-color="#a2a723"/>
      <stop offset="0.0" stop-color="#ff6f00"/>
      <stop offset="1.0" stop-color="#ffe17c"/>
    </linearGradient>
  </defs>
</svg>
