<?xml version="1.0" encoding="UTF-8" standalone="no"?>
<svg xmlns:xlink="http://www.w3.org/1999/xlink" height="60.0px" width="174.0px" xmlns="http://www.w3.org/2000/svg">
  <g transform="matrix(1.0, 0.0, 0.0, 1.0, 0.0, -0.1)">
    <path d="M15.95 3.1 L158.95 3.1 170.95 53.1 2.95 57.1 15.95 3.1" fill="#005149" fill-rule="evenodd" stroke="none"/>
    <path d="M174.0 56.1 L0.0 60.1 16.0 3.1 162.0 0.1 174.0 56.1" fill="#333333" fill-rule="evenodd" stroke="none"/>
    <path d="M18.95 6.1 L158.95 3.1 170.95 53.1 3.95 56.1 18.95 6.1" fill="url(#gradient0)" fill-rule="evenodd" stroke="none"/>
    <path d="M158.95 3.1 L154.95 7.1 22.95 10.1 18.95 6.1 158.95 3.1" fill="url(#gradient1)" fill-rule="evenodd" stroke="none"/>
    <path d="M154.95 7.1 L158.95 3.1 170.95 53.1 165.45 47.6 154.95 7.1" fill="url(#gradient2)" fill-rule="evenodd" stroke="none"/>
    <path d="M3.95 56.1 L12.45 47.6 165.45 47.6 170.95 53.1 3.95 56.1" fill="url(#gradient3)" fill-rule="evenodd" stroke="none"/>
    <path d="M18.95 6.1 L22.95 10.1 12.45 47.6 3.95 56.1 18.95 6.1" fill="url(#gradient4)" fill-rule="evenodd" stroke="none"/>
    <path d="M157.5 41.5 L20.5 43.5 26.5 13.5 150.5 11.5 157.5 41.5" fill="#ff0000" fill-opacity="0.3019608" fill-rule="evenodd" stroke="none"/>
  </g>
  <defs>
    <linearGradient gradientTransform="matrix(0.0, 0.0323, -0.0323, 0.0, 87.45, 29.6)" gradientUnits="userSpaceOnUse" id="gradient0" spreadMethod="pad" x1="-819.2" x2="819.2">
      <stop offset="0.0" stop-color="#a2a723"/>
      <stop offset="0.0" stop-color="#ff6f00"/>
      <stop offset="1.0" stop-color="#ffe17c"/>
    </linearGradient>
    <linearGradient gradientTransform="matrix(0.0, -0.0043, 0.0043, 0.0, 88.95, 6.6)" gradientUnits="userSpaceOnUse" id="gradient1" spreadMethod="pad" x1="-819.2" x2="819.2">
      <stop offset="0.0" stop-color="#a2a723"/>
      <stop offset="0.0" stop-color="#ff6f00"/>
      <stop offset="1.0" stop-color="#ffe17c"/>
    </linearGradient>
    <linearGradient gradientTransform="matrix(0.0, -0.0305, 0.0305, 0.0, 162.95, 28.1)" gradientUnits="userSpaceOnUse" id="gradient2" spreadMethod="pad" x1="-819.2" x2="819.2">
      <stop offset="0.0" stop-color="#a2a723"/>
      <stop offset="0.0" stop-color="#ff6f00"/>
      <stop offset="1.0" stop-color="#ffe17c"/>
    </linearGradient>
    <linearGradient gradientTransform="matrix(0.0, -0.0052, 0.0052, 0.0, 87.45, 51.85)" gradientUnits="userSpaceOnUse" id="gradient3" spreadMethod="pad" x1="-819.2" x2="819.2">
      <stop offset="0.0" stop-color="#a2a723"/>
      <stop offset="0.0" stop-color="#ff6f00"/>
      <stop offset="1.0" stop-color="#ffe17c"/>
    </linearGradient>
    <linearGradient gradientTransform="matrix(0.0, -0.0305, 0.0305, 0.0, 13.45, 31.1)" gradientUnits="userSpaceOnUse" id="gradient4" spreadMethod="pad" x1="-819.2" x2="819.2">
      <stop offset="0.0" stop-color="#a2a723"/>
      <stop offset="0.0" stop-color="#ff6f00"/>
      <stop offset="1.0" stop-color="#ffe17c"/>
    </linearGradient>
  </defs>
</svg>
