<?xml version="1.0" encoding="UTF-8" standalone="no"?>
<svg xmlns:xlink="http://www.w3.org/1999/xlink" height="56.0px" width="170.0px" xmlns="http://www.w3.org/2000/svg">
  <g transform="matrix(1.0, 0.0, 0.0, 1.0, 0.0, -0.1)">
    <path d="M0.0 3.1 L161.0 0.1 170.0 51.1 2.0 56.1 0.0 3.1" fill="#333333" fill-rule="evenodd" stroke="none"/>
    <path d="M3.95 6.1 L157.95 3.1 166.95 48.1 5.95 53.1 3.95 6.1" fill="url(#gradient0)" fill-rule="evenodd" stroke="none"/>
    <path d="M157.95 3.1 L153.95 7.1 8.45 10.6 3.95 6.1 157.95 3.1" fill="url(#gradient1)" fill-rule="evenodd" stroke="none"/>
    <path d="M154.0 7.1 L158.0 3.1 167.0 48.1 161.5 42.6 154.0 7.1" fill="url(#gradient2)" fill-rule="evenodd" stroke="none"/>
    <path d="M161.45 42.6 L166.95 48.1 5.95 53.1 10.95 48.1 161.45 42.6" fill="url(#gradient3)" fill-rule="evenodd" stroke="none"/>
    <path d="M10.95 48.1 L5.95 53.1 3.95 6.1 8.45 10.6 10.95 48.1" fill="url(#gradient4)" fill-rule="evenodd" stroke="none"/>
    <path d="M153.5 38.5 L15.5 43.5 14.5 16.5 148.5 10.5 153.5 38.5" fill="#ff0000" fill-opacity="0.3019608" fill-rule="evenodd" stroke="none"/>
  </g>
  <defs>
    <linearGradient gradientTransform="matrix(0.0, 0.0305, -0.0305, 0.0, 85.45, 28.1)" gradientUnits="userSpaceOnUse" id="gradient0" spreadMethod="pad" x1="-819.2" x2="819.2">
      <stop offset="0.0" stop-color="#a2a723"/>
      <stop offset="0.0" stop-color="#ff6f00"/>
      <stop offset="1.0" stop-color="#ffe17c"/>
    </linearGradient>
    <linearGradient gradientTransform="matrix(0.0, -0.0046, 0.0046, 0.0, 80.95, 6.85)" gradientUnits="userSpaceOnUse" id="gradient1" spreadMethod="pad" x1="-819.2" x2="819.2">
      <stop offset="0.0" stop-color="#a2a723"/>
      <stop offset="0.0" stop-color="#ff6f00"/>
      <stop offset="1.0" stop-color="#ffe17c"/>
    </linearGradient>
    <linearGradient gradientTransform="matrix(0.0, -0.0275, 0.0275, 0.0, 160.5, 25.6)" gradientUnits="userSpaceOnUse" id="gradient2" spreadMethod="pad" x1="-819.2" x2="819.2">
      <stop offset="0.0" stop-color="#a2a723"/>
      <stop offset="0.0" stop-color="#ff6f00"/>
      <stop offset="1.0" stop-color="#ffe17c"/>
    </linearGradient>
    <linearGradient gradientTransform="matrix(0.0, -0.0064, 0.0064, 0.0, 86.45, 47.85)" gradientUnits="userSpaceOnUse" id="gradient3" spreadMethod="pad" x1="-819.2" x2="819.2">
      <stop offset="0.0" stop-color="#a2a723"/>
      <stop offset="0.0" stop-color="#ff6f00"/>
      <stop offset="1.0" stop-color="#ffe17c"/>
    </linearGradient>
    <linearGradient gradientTransform="matrix(0.0, -0.0287, 0.0287, 0.0, 7.45, 29.6)" gradientUnits="userSpaceOnUse" id="gradient4" spreadMethod="pad" x1="-819.2" x2="819.2">
      <stop offset="0.0" stop-color="#a2a723"/>
      <stop offset="0.0" stop-color="#ff6f00"/>
      <stop offset="1.0" stop-color="#ffe17c"/>
    </linearGradient>
  </defs>
</svg>
