<?xml version="1.0" encoding="UTF-8" standalone="no"?>
<svg xmlns:xlink="http://www.w3.org/1999/xlink" height="35.05px" width="740.95px" xmlns="http://www.w3.org/2000/svg">
  <g transform="matrix(1.0, 0.0, 0.0, 1.0, 315.95, 17.5)">
    <path d="M182.0 -17.45 L192.5 -17.45 191.4 -17.45 406.1 -17.45 407.5 -17.5 Q414.75 -17.5 419.85 -12.4 425.0 -7.3 425.0 0.0 425.0 7.25 419.85 12.35 414.75 17.5 407.5 17.5 L407.0 17.5 407.0 17.55 182.0 17.55 182.0 -17.45" fill="url(#gradient0)" fill-rule="evenodd" stroke="none"/>
    <path d="M182.0 17.55 L-297.0 17.55 -297.0 17.45 -298.45 17.5 Q-305.75 17.5 -310.85 12.35 -315.95 7.25 -315.95 0.0 -315.95 -7.3 -310.85 -12.4 -305.75 -17.5 -298.45 -17.5 L-297.0 -17.45 182.0 -17.45 182.0 17.55" fill="url(#gradient1)" fill-rule="evenodd" stroke="none"/>
  </g>
  <defs>
    <linearGradient color-interpolation="linearRGB" gradientTransform="matrix(0.0, -0.0214, 0.0214, 0.0, -0.05, 0.05)" gradientUnits="userSpaceOnUse" id="gradient0" spreadMethod="pad" x1="-819.2" x2="819.2">
      <stop offset="0.0" stop-color="#d9d9d9"/>
      <stop offset="0.37254901960784315" stop-color="#ffffff"/>
    </linearGradient>
    <linearGradient color-interpolation="linearRGB" gradientTransform="matrix(0.0, -0.0214, 0.0214, 0.0, 108.95, 0.05)" gradientUnits="userSpaceOnUse" id="gradient1" spreadMethod="pad" x1="-819.2" x2="819.2">
      <stop offset="0.0" stop-color="#d9d9d9"/>
      <stop offset="0.37254901960784315" stop-color="#ffffff"/>
    </linearGradient>
  </defs>
</svg>
