<?xml version="1.0" encoding="UTF-8" standalone="no"?>
<svg xmlns:xlink="http://www.w3.org/1999/xlink" height="36.55px" width="742.45px" xmlns="http://www.w3.org/2000/svg">
  <g transform="matrix(1.0, 0.0, 0.0, 1.0, 316.7, 18.25)">
    <path d="M191.05 -17.45 L190.55 -17.45 188.4 -17.45 -297.0 -17.45 -298.45 -17.5 Q-305.75 -17.5 -310.85 -12.4 -315.95 -7.3 -315.95 0.0 -315.95 7.25 -310.85 12.35 -305.75 17.5 -298.45 17.5 L-297.0 17.45 -297.0 17.55 407.0 17.55 407.0 17.5 407.5 17.5 Q414.75 17.5 419.85 12.35 425.0 7.25 425.0 0.0 425.0 -7.3 419.85 -12.4 414.75 -17.5 407.5 -17.5 L406.1 -17.45 191.4 -17.45 191.05 -17.45 Z" fill="none" stroke="#c1cbce" stroke-linecap="round" stroke-linejoin="round" stroke-width="1.5"/>
  </g>
</svg>
